<?xml version="1.0" standalone="no"?>
<!DOCTYPE svg PUBLIC "-//W3C//DTD SVG 20010904//EN"
 "http://www.w3.org/TR/2001/REC-SVG-20010904/DTD/svg10.dtd">
<svg version="1.0" xmlns="http://www.w3.org/2000/svg"
 width="800.000000pt" height="800.000000pt" viewBox="0 0 800.000000 800.000000"
 preserveAspectRatio="xMidYMid meet">

<g transform="translate(0.000000,800.000000) scale(0.100000,-0.100000)"
fill="#000000" stroke="none">
<path d="M3550 6904 c-121 -15 -240 -35 -353 -61 -50 -11 -66 -18 -58 -26 19
-19 12 -31 -7 -14 -24 22 -29 21 -35 -5 -6 -20 -7 -21 -24 -6 -17 15 -27 13
-148 -26 -1090 -360 -1892 -1308 -2064 -2438 -31 -209 -32 -220 -13 -214 10 3
220 59 467 125 577 154 939 251 941 254 1 1 24 50 52 109 232 495 691 858
1224 967 137 28 328 44 443 36 55 -4 98 -5 95 -2 -3 3 -63 25 -135 50 -427
148 -1086 386 -1071 386 40 3 565 -178 986 -339 318 -121 324 -123 365 -116
19 4 35 2 37 -4 1 -5 45 -21 96 -35 116 -31 196 -62 335 -131 108 -54 120 -61
237 -145 l65 -47 525 141 c384 103 529 145 538 159 15 21 37 25 29 5 -3 -9 48
1 156 30 88 23 162 45 165 48 14 14 -194 270 -338 414 -108 109 -260 239 -377
323 -180 130 -450 283 -491 280 -13 -1 -21 2 -18 7 8 13 -176 91 -215 91 -21
0 -29 3 -21 8 8 5 -37 24 -120 50 -213 67 -427 112 -603 128 -154 14 -549 13
-665 -2z m340 -3 c0 -12 -20 -25 -27 -18 -7 7 6 27 18 27 5 0 9 -4 9 -9z m412
-53 c-7 -7 -12 -8 -12 -2 0 14 12 26 19 19 2 -3 -1 -11 -7 -17z m-462 -2 c0
-2 -8 -10 -17 -17 -16 -13 -17 -12 -4 4 13 16 21 21 21 13z m300 -6 c0 -5 -2
-10 -4 -10 -3 0 -8 5 -11 10 -3 6 -1 10 4 10 6 0 11 -4 11 -10z m-847 -27 c-7
-2 -19 -2 -25 0 -7 3 -2 5 12 5 14 0 19 -2 13 -5z m817 -3 c0 -5 -4 -10 -10
-10 -5 0 -10 5 -10 10 0 6 5 10 10 10 6 0 10 -4 10 -10z m250 -11 c0 -11 -3
-11 -24 -3 -23 9 -20 23 4 17 11 -3 20 -9 20 -14z m60 -9 c0 -5 -5 -10 -11
-10 -5 0 -7 5 -4 10 3 6 8 10 11 10 2 0 4 -4 4 -10z m210 -5 c0 -8 -6 -15 -14
-15 -7 0 -19 7 -26 15 -11 13 -8 15 14 15 16 0 26 -5 26 -15z m-864 -23 c-17
-16 -18 -16 -5 5 7 12 15 20 18 17 3 -2 -3 -12 -13 -22z m-606 8 c0 -5 -2 -10
-4 -10 -3 0 -8 5 -11 10 -3 6 -1 10 4 10 6 0 11 -4 11 -10z m860 -26 c0 -8 -4
-14 -10 -14 -5 0 -10 9 -10 21 0 11 5 17 10 14 6 -3 10 -13 10 -21z m-133 10
c-3 -3 -12 -4 -19 -1 -8 3 -5 6 6 6 11 1 17 -2 13 -5z m393 -27 c0 -18 -2 -19
-10 -7 -13 20 -13 43 0 35 6 -3 10 -16 10 -28z m440 23 c12 -8 11 -10 -7 -10
-13 0 -23 5 -23 10 0 13 11 13 30 0z m-1280 -10 c13 -8 13 -10 -2 -10 -9 0
-20 5 -23 10 -8 13 5 13 25 0z m-260 -26 c0 -8 -4 -12 -10 -9 -5 3 -10 13 -10
21 0 8 5 12 10 9 6 -3 10 -13 10 -21z m990 -43 c0 -5 -7 -12 -16 -15 -14 -5
-15 -4 -4 9 14 17 20 19 20 6z m290 5 c0 -3 -4 -8 -10 -11 -5 -3 -10 -1 -10 4
0 6 5 11 10 11 6 0 10 -2 10 -4z m-682 -26 c10 -17 10 -20 -3 -20 -8 0 -15 2
-15 4 0 2 -3 11 -6 20 -9 23 9 20 24 -4z m-578 -10 c0 -5 -4 -10 -10 -10 -5 0
-10 5 -10 10 0 6 5 10 10 10 6 0 10 -4 10 -10z m40 -121 c0 -11 -4 -18 -9 -14
-6 3 -9 14 -8 25 2 24 17 15 17 -11z m769 -3 c-2 -2 -14 -9 -26 -15 -19 -10
-22 -9 -17 4 4 8 15 15 27 15 11 0 18 -2 16 -4z m-1249 -56 c0 -5 -7 -7 -15
-4 -8 4 -15 8 -15 10 0 2 7 4 15 4 8 0 15 -4 15 -10z m280 -40 c13 -8 13 -10
-2 -10 -9 0 -20 5 -23 10 -8 13 5 13 25 0z m722 -87 c-39 -43 -92 -98 -118
-123 l-47 -45 53 68 c43 55 165 177 179 177 2 0 -28 -35 -67 -77z m538 46 c0
-5 -9 -9 -20 -9 -17 0 -19 2 -8 14 13 14 28 12 28 -5z m1063 14 c-7 -2 -19 -2
-25 0 -7 3 -2 5 12 5 14 0 19 -2 13 -5z m-1143 -13 c0 -12 -40 -33 -48 -25 -4
4 2 13 12 21 23 16 36 18 36 4z m1326 -8 c-10 -2 -22 0 -28 6 -6 6 0 7 19 4
21 -5 23 -7 9 -10z m-1830 -19 c-10 -10 -19 5 -10 18 6 11 8 11 12 0 2 -7 1
-15 -2 -18z m-416 -14 c0 -6 -4 -7 -10 -4 -5 3 -10 11 -10 16 0 6 5 7 10 4 6
-3 10 -11 10 -16z m868 -20 c-4 -30 -33 -48 -50 -31 -11 11 -8 17 12 32 33 25
42 25 38 -1z m-1093 -19 c3 -5 1 -10 -4 -10 -6 0 -11 5 -11 10 0 6 2 10 4 10
3 0 8 -4 11 -10z m1262 4 c-3 -3 -12 -4 -19 -1 -8 3 -5 6 6 6 11 1 17 -2 13
-5z m78 -4 c3 -5 1 -10 -4 -10 -6 0 -11 5 -11 10 0 6 2 10 4 10 3 0 8 -4 11
-10z m45 0 c0 -5 -7 -10 -15 -10 -8 0 -15 5 -15 10 0 6 7 10 15 10 8 0 15 -4
15 -10z m-340 -60 c0 -5 -6 -10 -14 -10 -8 0 -18 5 -21 10 -3 6 3 10 14 10 12
0 21 -4 21 -10z m480 0 c0 -5 -4 -10 -9 -10 -6 0 -13 5 -16 10 -3 6 1 10 9 10
9 0 16 -4 16 -10z m843 3 c-7 -2 -21 -2 -30 0 -10 3 -4 5 12 5 17 0 24 -2 18
-5z m197 -3 c0 -5 -4 -10 -10 -10 -5 0 -10 5 -10 10 0 6 5 10 10 10 6 0 10 -4
10 -10z m-1177 -17 c-7 -2 -19 -2 -25 0 -7 3 -2 5 12 5 14 0 19 -2 13 -5z
m-187 -50 c-11 -11 -17 4 -9 23 7 18 8 18 11 1 2 -10 1 -21 -2 -24z m204 25
c0 -4 -6 -8 -14 -8 -8 0 -17 4 -20 8 -2 4 4 8 15 8 10 0 19 -4 19 -8z m70 8
c0 -2 -7 -7 -16 -10 -8 -3 -12 -2 -9 4 6 10 25 14 25 6z m694 -63 c-48 -69
-74 -101 -59 -73 15 28 96 140 101 140 3 0 -16 -30 -42 -67z m501 57 c3 -5 -1
-10 -10 -10 -9 0 -13 5 -10 10 3 6 8 10 10 10 2 0 7 -4 10 -10z m106 0 c6 0 7
-5 3 -11 -3 -6 0 -15 7 -20 11 -7 10 -9 -3 -9 -10 0 -18 7 -18 15 0 8 -7 15
-15 15 -8 0 -15 5 -15 11 0 6 7 8 16 5 9 -3 20 -6 25 -6z m-198 -47 c-7 -2
-21 -2 -30 0 -10 3 -4 5 12 5 17 0 24 -2 18 -5z m-3399 -24 c-6 -11 -24 -2
-24 11 0 5 7 7 15 4 8 -4 12 -10 9 -15z m2893 15 c-3 -3 -12 -4 -19 -1 -8 3
-5 6 6 6 11 1 17 -2 13 -5z m653 -17 c9 -3 4 -6 -12 -6 -27 -1 -35 8 -21 22 4
4 9 3 12 -1 3 -5 13 -12 21 -15z m65 13 c3 -5 -1 -10 -9 -10 -9 0 -16 5 -16
10 0 6 4 10 9 10 6 0 13 -4 16 -10z m-2210 -19 c3 -5 1 -12 -5 -16 -5 -3 -10
1 -10 9 0 18 6 21 15 7z m2265 -7 c0 -2 -7 -4 -15 -4 -8 0 -15 4 -15 10 0 5 7
7 15 4 8 -4 15 -8 15 -10z m-3500 -14 c-24 -15 -37 -11 -16 5 11 8 22 12 25 9
3 -3 -1 -9 -9 -14z m2060 -20 c0 -5 -2 -10 -4 -10 -3 0 -8 5 -11 10 -3 6 -1
10 4 10 6 0 11 -4 11 -10z m-1528 -32 c-9 -9 -15 -9 -24 0 -9 9 -7 12 12 12
19 0 21 -3 12 -12z m458 2 c-18 -12 -40 -13 -40 -2 0 4 12 9 28 10 21 1 23 0
12 -8z m70 -20 c0 -5 -5 -10 -11 -10 -5 0 -7 5 -4 10 3 6 8 10 11 10 2 0 4 -4
4 -10z m-360 -20 c0 -5 -6 -10 -14 -10 -8 0 -18 5 -21 10 -3 6 3 10 14 10 12
0 21 -4 21 -10z m-776 -42 c5 -9 7 -20 4 -24 -7 -7 -57 27 -58 39 0 15 43 3
54 -15z m1060 -10 c-3 -4 -9 -8 -15 -8 -5 0 -9 4 -9 8 0 5 7 9 15 9 8 0 12 -4
9 -9z m-924 -7 c0 -11 -39 -41 -52 -41 -12 0 -9 25 4 38 14 14 48 16 48 3z
m1410 -40 c0 -6 -4 -13 -10 -16 -5 -3 -10 1 -10 9 0 9 5 16 10 16 6 0 10 -4
10 -9z m1220 -21 c0 -5 -4 -10 -10 -10 -5 0 -10 5 -10 10 0 6 5 10 10 10 6 0
10 -4 10 -10z m-796 -13 c17 -13 17 -16 -3 -83 -11 -39 -31 -80 -44 -92 -29
-27 -85 -48 -98 -35 -12 12 -22 155 -12 168 6 8 112 51 134 54 3 1 13 -5 23
-12z m-2497 -41 c-4 -9 -11 -16 -17 -16 -11 0 -14 33 -3 43 11 11 26 -10 20
-27z m82 -15 c9 -6 10 -11 2 -15 -13 -8 -31 1 -31 15 0 11 11 11 29 0z m2128
-7 c-3 -3 -12 -4 -19 -1 -8 3 -5 6 6 6 11 1 17 -2 13 -5z m-2087 -49 c31 -33
17 -48 -30 -35 -19 6 -42 15 -50 20 -13 9 -12 12 4 25 28 21 49 19 76 -10z
m3137 3 c-3 -8 -6 -5 -6 6 -1 11 2 17 5 13 3 -3 4 -12 1 -19z m1143 -8 c0 -5
-5 -10 -11 -10 -5 0 -7 5 -4 10 3 6 8 10 11 10 2 0 4 -4 4 -10z m-3660 -50 c0
-5 -4 -10 -10 -10 -5 0 -10 5 -10 10 0 6 5 10 10 10 6 0 10 -4 10 -10z m-587
-49 c17 -11 25 -21 18 -25 -14 -9 -47 9 -55 29 -7 20 3 19 37 -4z m2287 -11
c0 -5 -9 -10 -20 -10 -11 0 -20 5 -20 10 0 6 9 10 20 10 11 0 20 -4 20 -10z
m-1690 -10 c0 -5 -4 -10 -10 -10 -5 0 -10 5 -10 10 0 6 5 10 10 10 6 0 10 -4
10 -10z m-336 -15 c-4 -8 -15 -15 -26 -15 -17 0 -18 3 -8 15 7 8 19 15 26 15
8 0 11 -6 8 -15z m1976 0 c0 -8 -7 -15 -15 -15 -8 0 -15 7 -15 15 0 8 7 15 15
15 8 0 15 -7 15 -15z m90 -12 c0 -14 -36 -18 -44 -4 -8 12 3 20 25 18 10 -1
19 -7 19 -14z m-1885 -23 c-3 -5 -12 -10 -20 -10 -8 0 -17 5 -20 10 -4 6 5 10
20 10 15 0 24 -4 20 -10z m-305 -6 c19 -4 36 -16 42 -29 5 -12 22 -29 36 -38
43 -26 10 -20 -64 13 -37 17 -69 29 -71 26 -2 -2 33 -25 78 -51 61 -36 83 -45
89 -35 10 15 32 4 28 -15 -2 -8 6 -21 17 -29 16 -12 18 -18 9 -33 -18 -29 -52
-28 -75 1 -11 14 -40 40 -64 56 -55 38 -112 119 -93 131 16 11 26 11 68 3z
m-595 -54 c19 -7 19 -8 2 -15 -12 -5 -24 -2 -35 9 -13 13 -14 16 -2 15 8 0 24
-4 35 -9z m165 -16 c0 -9 -5 -14 -12 -12 -18 6 -21 28 -4 28 9 0 16 -7 16 -16z
m2885 5 c12 -19 -5 -23 -22 -6 -16 16 -16 17 -1 17 9 0 20 -5 23 -11z m-3087
-41 c-3 -7 -20 -14 -38 -16 -30 -3 -32 -2 -21 12 16 19 65 22 59 4z m-141 -28
c4 -14 11 -19 22 -15 21 6 86 -24 74 -35 -4 -5 -24 -11 -43 -14 -32 -6 -37 -3
-57 30 -25 39 -29 54 -12 54 6 0 13 -9 16 -20z m1063 -35 c44 -24 45 -24 15
-25 -31 0 -75 24 -75 41 0 13 10 11 60 -16z m180 -25 c0 -5 -4 -10 -10 -10 -5
0 -10 5 -10 10 0 6 5 10 10 10 6 0 10 -4 10 -10z m-430 -47 c0 -24 -25 -9 -28
17 -3 21 -2 22 12 11 9 -7 16 -20 16 -28z m-120 -9 c0 -17 -19 -29 -31 -17 -4
4 -6 18 -2 31 4 18 8 20 19 11 8 -6 14 -17 14 -25z m500 -5 c0 -6 -4 -7 -10
-4 -5 3 -10 11 -10 16 0 6 5 7 10 4 6 -3 10 -11 10 -16z m-62 -10 c-2 -6 -8
-10 -13 -10 -5 0 -11 4 -13 10 -2 6 4 11 13 11 9 0 15 -5 13 -11z m-81 -5 c-3
-3 -12 -4 -19 -1 -8 3 -5 6 6 6 11 1 17 -2 13 -5z m-87 -23 c0 -13 10 -20 31
-25 26 -5 30 -10 27 -32 -3 -23 -8 -27 -45 -30 -27 -3 -43 0 -43 7 0 7 9 9 21
6 20 -5 20 -5 2 16 -10 12 -24 27 -32 33 -19 15 -7 44 19 44 13 0 20 -7 20
-19z m-739 -11 c21 -12 26 -50 7 -50 -32 0 -58 14 -58 29 0 32 17 38 51 21z
m419 -25 c-7 -9 -15 -13 -17 -11 -7 7 7 26 19 26 6 0 6 -6 -2 -15z m540 -31
c-15 -17 -61 -15 -68 4 -2 8 9 12 38 12 37 0 41 -2 30 -16z m-375 -4 c3 -5 -1
-10 -10 -10 -9 0 -13 5 -10 10 3 6 8 10 10 10 2 0 7 -4 10 -10z m-517 -32 c-5
-15 -48 -24 -48 -10 0 14 12 22 33 22 10 0 17 -5 15 -12z m946 -14 c3 -9 -1
-14 -14 -14 -21 0 -34 15 -25 30 7 12 32 2 39 -16z m-194 6 c0 -5 -4 -10 -10
-10 -5 0 -10 5 -10 10 0 6 5 10 10 10 6 0 10 -4 10 -10z m50 -15 c0 -8 -7 -15
-15 -15 -16 0 -20 12 -8 23 11 12 23 8 23 -8z m-598 -50 c0 -5 -5 -11 -11 -13
-6 -2 -11 4 -11 13 0 9 5 15 11 13 6 -2 11 -8 11 -13z m173 -145 c-3 -5 -12
-10 -18 -10 -7 0 -6 4 3 10 19 12 23 12 15 0z m-78 -526 c-3 -3 -12 -4 -19 -1
-8 3 -5 6 6 6 11 1 17 -2 13 -5z m-64 -11 c-7 -2 -19 -2 -25 0 -7 3 -2 5 12 5
14 0 19 -2 13 -5z"/>
<path d="M7025 5609 c-16 -5 -88 -25 -160 -44 -71 -19 -308 -82 -525 -139
-217 -58 -426 -114 -465 -125 -38 -11 -175 -48 -303 -82 -128 -34 -230 -64
-228 -66 3 -3 53 -26 113 -52 98 -43 209 -99 173 -87 -8 2 -84 34 -168 71
l-152 66 -68 -19 c-37 -11 -103 -29 -147 -41 -225 -59 -943 -252 -1200 -321
-296 -80 -937 -251 -970 -260 -27 -7 -151 -40 -525 -141 -63 -17 -171 -45
-240 -64 -69 -18 -159 -42 -200 -53 -210 -57 -614 -166 -860 -231 -85 -22
-209 -55 -275 -73 l-120 -33 -39 -78 c-22 -42 -41 -75 -43 -73 -2 2 11 33 29
70 17 36 30 67 27 70 -2 2 -67 -13 -144 -34 -77 -21 -131 -39 -119 -39 17 -1
20 -6 16 -30 -3 -24 0 -30 19 -34 l24 -4 -23 -2 c-13 0 -20 -5 -17 -11 9 -14
-13 -50 -31 -50 -13 0 -15 -9 -9 -52 4 -29 14 -57 21 -61 8 -4 14 -13 14 -20
0 -8 -3 -7 -9 2 -5 8 -18 12 -30 8 -12 -3 -24 -1 -27 4 -3 5 -12 9 -20 9 -10
0 -12 -4 -7 -12 4 -7 8 -33 9 -58 1 -44 17 -114 31 -136 5 -7 26 -15 48 -18
38 -6 55 -19 55 -43 0 -6 3 -18 6 -27 4 -11 1 -16 -10 -16 -9 0 -16 -5 -16
-11 0 -7 -8 -18 -17 -25 -17 -13 -16 -15 7 -33 25 -20 25 -20 5 -36 -20 -16
-20 -16 3 -12 18 4 21 3 12 -8 -7 -8 -7 -15 -1 -19 5 -3 8 -17 7 -30 -3 -23
-1 -23 18 -11 40 24 74 27 86 6 16 -30 12 -51 -9 -51 -11 0 -21 -5 -23 -10 -2
-6 -16 -11 -33 -13 -22 -1 -32 4 -42 23 -7 14 -13 21 -13 16 0 -19 43 -171 51
-181 5 -5 9 -20 9 -33 0 -13 8 -49 17 -80 9 -32 16 -61 14 -66 -1 -5 4 -4 13
3 20 17 32 -5 16 -33 -9 -18 -5 -45 25 -157 19 -74 51 -195 71 -269 20 -74 39
-138 43 -142 5 -6 634 157 1031 267 181 50 576 156 676 181 56 14 71 21 67 33
-4 13 -3 13 5 2 8 -11 86 7 428 99 231 61 439 118 464 125 25 7 158 43 295 80
138 36 401 106 585 156 184 49 387 104 450 121 63 17 169 45 235 63 66 19 190
52 275 74 85 22 182 48 215 57 71 19 78 21 260 69 77 20 144 41 150 46 5 5 19
9 31 9 12 0 156 36 320 80 165 44 455 121 647 172 289 77 347 95 347 110 0 11
5 15 15 12 8 -4 13 -10 10 -14 -5 -8 94 16 233 56 30 8 52 20 52 28 0 8 -30
123 -66 257 -36 134 -75 278 -85 319 -11 41 -32 118 -46 170 -45 169 -94 353
-122 460 -87 328 -125 466 -130 471 -3 4 -19 2 -36 -2z m-160 -109 c3 -5 -3
-10 -15 -10 -12 0 -18 5 -15 10 3 6 10 10 15 10 5 0 12 -4 15 -10z m-47 -12
c-2 -6 -10 -14 -16 -16 -7 -2 -10 2 -6 12 7 18 28 22 22 4z m110 -4 c27 -8 28
-25 3 -41 -15 -10 -22 -9 -31 2 -6 8 -9 18 -6 24 3 5 0 12 -6 14 -19 8 12 8
40 1z m-133 -54 c-3 -5 -13 -10 -21 -10 -8 0 -14 5 -14 10 0 6 9 10 21 10 11
0 17 -4 14 -10z m48 -17 c-7 -2 -21 -2 -30 0 -10 3 -4 5 12 5 17 0 24 -2 18
-5z m135 -12 c11 -7 10 -10 -3 -15 -19 -7 -35 0 -35 15 0 11 20 12 38 0z m-88
-11 c0 -5 -7 -10 -15 -10 -8 0 -15 5 -15 10 0 6 7 10 15 10 8 0 15 -4 15 -10z
m-166 -19 c28 -11 7 -20 -33 -14 -23 4 -29 8 -20 14 16 10 27 10 53 0z m90
-21 c-7 -7 -19 -7 -35 -1 -23 9 -22 10 11 10 23 1 31 -2 24 -9z m76 -9 c0 -4
-11 -6 -25 -3 -14 2 -25 6 -25 8 0 2 11 4 25 4 14 0 25 -4 25 -9z m87 -17 c-3
-3 -12 -4 -19 -1 -8 3 -5 6 6 6 11 1 17 -2 13 -5z m-427 -64 c0 -5 -6 -10 -14
-10 -8 0 -18 5 -21 10 -3 6 3 10 14 10 12 0 21 -4 21 -10z m60 -10 c12 -8 9
-10 -12 -10 -16 0 -28 5 -28 10 0 13 20 13 40 0z m-810 -59 c0 -6 -4 -13 -10
-16 -5 -3 -10 1 -10 9 0 9 5 16 10 16 6 0 10 -4 10 -9z m757 -52 c89 -43 117
-100 193 -386 l53 -203 33 -6 c19 -3 31 -10 28 -15 -3 -5 -17 -6 -31 -3 -22 6
-24 4 -19 -13 14 -45 37 -130 42 -158 3 -16 15 -37 27 -45 11 -8 30 -23 41
-33 16 -14 13 -13 -11 2 -17 12 -34 21 -37 21 -3 0 -6 -27 -6 -60 0 -102 -41
-170 -130 -215 -42 -21 -358 -111 -365 -103 -2 1 -42 147 -89 323 -47 176 -98
364 -112 417 -23 86 -29 98 -55 109 -16 6 -32 16 -35 21 -4 5 8 2 25 -6 17 -9
31 -12 31 -7 0 5 -16 69 -35 142 -20 73 -34 137 -32 143 2 6 73 29 158 53 181
49 259 54 326 22z m-591 -126 c3 -16 12 -50 20 -77 18 -63 18 -64 -3 -68 -12
-2 -1 -13 35 -32 70 -39 59 -45 -15 -7 l-59 29 -85 -22 c-151 -42 -169 -47
-169 -51 0 -2 5 -16 12 -32 6 -15 12 -36 13 -45 6 -49 60 -228 69 -228 6 0 60
14 121 30 60 16 113 26 116 22 4 -4 15 -35 23 -69 9 -34 19 -69 22 -76 4 -11
-25 -22 -121 -47 -75 -20 -124 -38 -122 -44 2 -6 21 -76 42 -156 20 -80 41
-149 46 -154 4 -5 68 7 147 28 76 20 145 36 153 36 18 0 57 -147 43 -160 -11
-10 -423 -120 -460 -123 -24 -2 -28 3 -39 43 -14 53 -47 175 -189 705 -57 215
-103 391 -101 393 1 2 57 18 124 35 67 18 119 36 114 40 -4 5 -1 6 7 3 8 -4
62 7 120 23 132 36 128 36 136 4z m-1436 -143 c0 -5 -4 -10 -10 -10 -5 0 -10
5 -10 10 0 6 5 10 10 10 6 0 10 -4 10 -10z m870 -32 c6 -24 16 -58 22 -76 5
-18 8 -36 5 -38 -3 -3 -44 -16 -92 -29 -48 -14 -89 -26 -90 -27 -1 -2 40 -158
92 -348 127 -470 163 -609 163 -624 0 -14 -166 -63 -177 -53 -3 4 -29 95 -58
204 -124 465 -206 767 -208 770 -2 1 -43 -8 -92 -22 -67 -18 -91 -21 -97 -12
-12 20 -41 148 -34 154 9 10 497 141 528 142 24 1 29 -4 38 -41z m30 -4 c0 -8
-5 -12 -10 -9 -6 4 -8 11 -5 16 9 14 15 11 15 -7z m40 -30 c0 -2 -9 -4 -21 -4
-11 0 -18 4 -14 10 5 8 35 3 35 -6z m-847 -141 c3 -10 49 -115 102 -233 293
-649 375 -836 375 -847 0 -12 -171 -56 -180 -46 -5 4 -25 47 -46 96 -43 100
-36 98 -164 63 l-85 -23 0 -49 c0 -27 3 -76 7 -110 l7 -61 -80 -22 c-45 -12
-83 -20 -86 -18 -9 9 -114 1027 -116 1131 l-2 69 120 33 c144 39 141 38 148
17z m2382 -43 c-3 -5 -10 -10 -16 -10 -5 0 -9 5 -9 10 0 6 7 10 16 10 8 0 12
-4 9 -10z m-95 -20 c0 -5 -4 -10 -10 -10 -5 0 -10 5 -10 10 0 6 5 10 10 10 6
0 10 -4 10 -10z m-10 -37 c9 -9 -65 9 -74 18 -5 4 8 3 30 -2 21 -6 41 -13 44
-16z m-3197 -43 c42 -18 76 -35 74 -37 -5 -4 -177 67 -177 74 0 6 0 6 103 -37z
m381 11 c3 -4 18 -6 33 -3 30 5 22 -13 -8 -20 -14 -3 -6 -42 57 -278 41 -151
90 -336 110 -410 89 -330 112 -424 109 -431 -8 -12 -176 -52 -185 -43 -4 5
-67 110 -139 234 -72 124 -135 232 -141 240 -6 8 -20 33 -33 55 -79 144 -110
196 -113 193 -2 -2 12 -62 32 -133 36 -133 50 -187 128 -479 25 -93 43 -173
41 -177 -6 -9 -153 -44 -159 -38 -4 4 -90 318 -167 609 -35 134 -43 163 -98
367 -23 84 -41 156 -41 161 0 11 205 66 222 59 7 -2 56 -78 108 -168 52 -90
129 -225 172 -299 43 -74 78 -131 78 -126 0 5 -39 153 -86 329 -47 175 -84
320 -82 322 3 3 134 41 150 44 4 0 9 -3 12 -8z m2956 -1 c0 -5 -9 -10 -20 -10
-11 0 -20 5 -20 10 0 6 9 10 20 10 11 0 20 -4 20 -10z m-3820 -30 c0 -5 -5
-10 -11 -10 -5 0 -7 5 -4 10 3 6 8 10 11 10 2 0 4 -4 4 -10z m277 4 c-3 -3
-12 -4 -19 -1 -8 3 -5 6 6 6 11 1 17 -2 13 -5z m166 -1 c-7 -2 -21 -2 -30 0
-10 3 -4 5 12 5 17 0 24 -2 18 -5z m3382 -15 c6 -4 2 -8 -7 -8 -10 0 -18 7
-18 17 0 9 3 12 8 7 4 -5 12 -12 17 -16z m63 -34 c3 -18 -3 -22 -33 -26 -30
-3 -38 -1 -45 16 -6 17 -3 22 19 27 40 10 56 6 59 -17z m-155 9 c-7 -2 -21 -2
-30 0 -10 3 -4 5 12 5 17 0 24 -2 18 -5z m330 -20 c-24 -2 -62 -2 -85 0 -24 2
-5 4 42 4 47 0 66 -2 43 -4z m-4174 -98 l-42 -77 43 -156 c23 -87 48 -177 56
-202 7 -25 31 -115 53 -200 23 -85 67 -253 99 -373 32 -120 56 -219 53 -221
-13 -8 -163 -47 -167 -44 -2 2 -47 167 -101 367 -53 200 -99 359 -101 352 -2
-6 15 -178 38 -382 23 -203 40 -371 38 -373 -1 -1 -39 -12 -83 -24 -71 -19
-81 -20 -91 -7 -6 9 -81 168 -165 355 -84 186 -155 338 -156 336 -2 -2 39
-163 92 -358 52 -196 95 -362 95 -371 0 -16 -139 -60 -152 -48 -6 5 -26 75
-113 401 -12 47 -61 230 -109 407 -47 176 -86 325 -86 330 0 12 242 75 252 65
4 -4 76 -159 159 -343 83 -184 157 -347 165 -364 13 -29 13 -29 14 -5 0 14 -9
104 -20 200 -11 96 -31 268 -43 382 l-23 207 117 32 c111 31 116 33 128 65 12
32 83 136 89 129 2 -2 -15 -38 -39 -80z m1136 26 c-6 -5 -23 -12 -40 -16 -29
-6 -29 -6 -11 9 21 17 67 23 51 7z m2732 -23 c-3 -8 -6 -5 -6 6 -1 11 2 17 5
13 3 -3 4 -12 1 -19z m-3588 -30 c10 -32 43 -156 176 -653 37 -137 80 -297 95
-355 16 -58 26 -108 22 -111 -4 -3 -38 -14 -77 -23 -38 -9 -77 -19 -86 -22
-13 -4 -20 10 -33 63 -20 78 -150 563 -171 638 -55 192 -115 439 -108 446 6 6
136 44 165 48 3 1 11 -14 17 -31z m2217 -17 c-3 -5 -15 -7 -26 -4 -28 7 -25
13 6 13 14 0 23 -4 20 -9z m-16 -41 c0 -5 -12 -10 -27 -9 -25 0 -26 1 -8 9 27
12 35 12 35 0z m-2342 -202 c2 -11 -3 -18 -12 -18 -9 0 -16 6 -16 14 0 8 -6
17 -12 20 -7 3 -2 4 12 3 15 -1 26 -9 28 -19z m-1059 -60 c6 -18 56 -204 112
-413 56 -209 121 -452 144 -540 24 -88 40 -163 37 -167 -8 -7 -173 -51 -177
-46 -7 8 -298 1106 -299 1127 -1 22 7 27 79 47 44 12 83 23 87 23 3 1 11 -14
17 -31z m4956 -87 c10 -17 -12 -21 -25 -6 -10 12 -10 15 3 15 9 0 18 -4 22 -9z
m-5431 -364 c49 -182 107 -399 129 -482 22 -82 43 -154 47 -158 5 -5 67 7 139
27 73 20 138 36 145 36 14 0 60 -151 48 -161 -6 -6 -78 -26 -372 -104 -52 -13
-97 -21 -101 -17 -3 4 -11 25 -16 47 -77 307 -289 1072 -299 1078 -8 4 -14 13
-14 18 0 6 4 8 8 5 5 -3 46 6 93 19 46 13 89 24 94 24 6 1 50 -149 99 -332z
m-1242 271 c-7 -7 -12 -8 -12 -2 0 14 12 26 19 19 2 -3 -1 -11 -7 -17z m443 2
c-3 -5 -10 -10 -16 -10 -5 0 -9 5 -9 10 0 6 7 10 16 10 8 0 12 -4 9 -10z m440
-102 c10 -43 17 -79 14 -82 -3 -3 -68 -22 -144 -42 -77 -21 -144 -40 -148 -44
-8 -7 60 -288 74 -304 4 -5 59 5 125 23 64 17 119 30 121 28 4 -5 43 -143 43
-155 0 -5 -54 -24 -120 -42 -66 -18 -120 -36 -120 -40 0 -13 81 -314 86 -319
2 -2 67 12 143 32 77 21 146 37 154 37 16 0 62 -150 49 -161 -10 -8 -482 -132
-487 -128 -3 4 -230 846 -282 1048 -13 51 -21 96 -18 99 9 9 457 130 475 128
10 -1 22 -27 35 -78z m-562 5 c-7 -2 -21 -2 -30 0 -10 3 -4 5 12 5 17 0 24 -2
18 -5z m5137 -43 c0 -5 -4 -10 -9 -10 -6 0 -13 5 -16 10 -3 6 1 10 9 10 9 0
16 -4 16 -10z m-5503 -52 c-3 -7 -5 -2 -5 12 0 14 2 19 5 13 2 -7 2 -19 0 -25z
m117 23 c3 -4 -6 -6 -19 -3 -14 2 -25 6 -25 8 0 8 39 4 44 -5z m144 -8 c-10
-2 -26 -2 -35 0 -10 3 -2 5 17 5 19 0 27 -2 18 -5z m1202 -13 c0 -5 -4 -10
-10 -10 -5 0 -10 5 -10 10 0 6 5 10 10 10 6 0 10 -4 10 -10z m3871 -16 c12
-14 11 -16 -5 -13 -11 2 -21 10 -24 17 -5 17 13 15 29 -4z m-5274 0 c-3 -3
-12 -4 -19 -1 -8 3 -5 6 6 6 11 1 17 -2 13 -5z m5432 -20 c1 -1 1 -8 -1 -14
-2 -8 -13 -4 -28 10 l-25 21 25 -7 c14 -3 27 -8 29 -10z m-5419 -14 c0 -5 -4
-10 -10 -10 -5 0 -10 5 -10 10 0 6 5 10 10 10 6 0 10 -4 10 -10z m-72 -87 c4
-50 19 -56 33 -13 7 19 18 30 30 30 25 0 25 -34 0 -80 -24 -45 -67 -51 -84
-12 -9 20 -9 26 1 30 7 2 12 20 11 40 l0 37 -18 -45 c-16 -40 -19 -42 -25 -22
-4 12 -4 36 -1 53 5 24 11 29 28 27 18 -2 23 -11 25 -45z m1559 -9 c-2 -2 -12
-1 -22 3 -18 6 -18 7 1 13 17 7 33 -5 21 -16z m-1394 -285 c-7 -27 -23 -24
-23 6 0 17 4 23 14 19 8 -3 12 -13 9 -25z m7 -54 c0 -14 -4 -25 -10 -25 -5 0
-10 11 -10 25 0 14 5 25 10 25 6 0 10 -11 10 -25z m411 -218 c-1 -12 -15 -9
-19 4 -3 6 1 10 8 8 6 -3 11 -8 11 -12z m1431 -102 c3 -14 1 -25 -3 -25 -5 0
-9 11 -9 25 0 14 2 25 4 25 2 0 6 -11 8 -25z m-1832 -5 c9 -6 10 -10 3 -10 -6
0 -18 -3 -27 -6 -11 -4 -16 -1 -16 10 0 18 17 21 40 6z m400 -66 c0 -8 -4 -14
-10 -14 -5 0 -10 9 -10 21 0 11 5 17 10 14 6 -3 10 -13 10 -21z m-114 1 c-11
-8 -27 -15 -35 -15 -13 1 -12 4 3 15 11 8 27 15 35 15 13 -1 12 -4 -3 -15z
m-122 -71 c22 -9 20 -31 -5 -44 -16 -9 -24 -8 -38 4 -10 9 -24 16 -32 16 -10
1 -8 5 5 15 21 16 44 19 70 9z m-60 -150 c9 -3 16 -14 16 -24 0 -27 -46 -23
-59 6 -9 21 -8 24 8 24 11 0 26 -3 35 -6z m-45 -129 c-6 -6 -13 -5 -19 5 -6 9
-5 17 3 22 15 9 29 -14 16 -27z"/>
<path d="M6345 4966 c-50 -15 -50 -21 0 -201 20 -71 43 -161 53 -200 l17 -70
95 -5 c74 -4 87 -7 61 -12 -18 -5 -58 -8 -87 -8 -32 0 -54 -4 -54 -11 0 -28
84 -319 92 -319 6 0 34 7 64 16 64 18 94 46 94 87 0 47 -33 157 -47 157 -15 0
-18 17 -4 22 9 3 -105 450 -130 511 -20 48 -70 59 -154 33z m160 -536 c-3 -5
-15 -10 -26 -10 -10 0 -19 5 -19 10 0 6 12 10 26 10 14 0 23 -4 19 -10z"/>
<path d="M4530 4407 c0 -3 6 -57 14 -119 8 -62 22 -184 32 -270 10 -87 21
-163 25 -169 4 -7 14 -9 25 -4 11 5 22 8 26 7 4 -1 20 3 35 9 15 6 36 12 47
15 10 2 21 5 23 8 4 4 -31 88 -119 286 -11 25 -24 54 -28 65 -5 11 -23 54 -41
95 -31 73 -39 90 -39 77z"/>
<path d="M2991 3824 c0 -11 3 -14 6 -6 3 7 2 16 -1 19 -3 4 -6 -2 -5 -13z"/>
<path d="M310 3788 c0 -11 22 -10 40 2 11 8 9 9 -12 8 -16 -1 -28 -6 -28 -10z"/>
<path d="M6610 3518 c-162 -43 -317 -86 -345 -94 -71 -20 -652 -175 -701 -187
-39 -9 -43 -13 -79 -94 -90 -200 -205 -364 -370 -528 -140 -139 -262 -226
-440 -315 -212 -106 -382 -156 -610 -181 -233 -25 -557 13 -749 87 -14 6 -17
4 -11 -6 5 -8 3 -11 -6 -8 -8 3 -13 11 -11 17 1 7 -3 9 -9 5 -6 -3 -14 -3 -18
2 -3 5 -71 42 -151 81 -80 40 -182 100 -228 133 -46 33 -88 60 -94 60 -6 0
-248 -63 -537 -141 -289 -77 -604 -161 -699 -187 -94 -25 -172 -50 -172 -55 0
-31 237 -313 378 -449 341 -329 745 -571 1194 -717 239 -77 614 -149 641 -122
16 16 37 14 31 -3 -4 -11 24 -15 153 -21 167 -7 371 4 553 31 150 22 153 23
138 43 -11 14 -10 14 7 -1 19 -16 29 -14 174 23 85 22 157 43 160 48 4 4 22
10 41 14 57 9 248 87 246 100 -1 7 -5 18 -9 25 -11 17 8 15 23 -3 16 -19 30
-15 143 38 54 25 86 45 83 53 -3 7 2 11 12 9 23 -4 112 45 112 61 0 7 6 11 13
8 17 -6 170 94 312 204 150 117 438 404 429 427 -5 13 -3 16 7 13 34 -11 269
331 390 566 163 320 261 621 314 974 20 137 20 172 -2 171 -10 0 -151 -37
-313 -81z m47 -710 c-3 -7 -5 -2 -5 12 0 14 2 19 5 13 2 -7 2 -19 0 -25z
m-4067 -468 c0 -5 -4 -10 -10 -10 -5 0 -10 5 -10 10 0 6 5 10 10 10 6 0 10 -4
10 -10z m3417 -21 c15 -15 -7 -39 -36 -39 -23 0 -28 19 -9 38 15 15 31 15 45
1z m-225 -189 c16 -18 16 -19 -11 -17 -21 2 -27 6 -23 20 6 22 14 22 34 -3z
m-2212 -46 c0 -2 -9 0 -20 6 -11 6 -20 13 -20 16 0 2 9 0 20 -6 11 -6 20 -13
20 -16z m2080 6 c0 -11 -4 -20 -9 -20 -5 0 -7 9 -4 20 3 11 7 20 9 20 2 0 4
-9 4 -20z m90 -21 c0 -10 -4 -19 -9 -19 -5 0 -8 11 -8 25 0 13 3 22 8 19 5 -3
9 -14 9 -25z m-290 6 c0 -8 -4 -15 -10 -15 -5 0 -7 7 -4 15 4 8 8 15 10 15 2
0 4 -7 4 -15z m40 -26 c0 -5 -4 -9 -10 -9 -5 0 -10 7 -10 16 0 8 5 12 10 9 6
-3 10 -10 10 -16z m260 -59 c0 -5 -2 -10 -4 -10 -3 0 -8 5 -11 10 -3 6 -1 10
4 10 6 0 11 -4 11 -10z m-1890 -10 c8 -5 11 -10 5 -10 -5 0 -17 5 -25 10 -8 5
-10 10 -5 10 6 0 17 -5 25 -10z m-728 -47 c-22 -27 -50 -57 -63 -68 l-24 -20
15 20 c17 24 103 115 108 115 2 0 -14 -21 -36 -47z m2380 -5 c-15 -15 -24 -6
-16 16 5 12 10 14 17 7 8 -8 8 -14 -1 -23z m388 15 c0 -5 -4 -14 -9 -22 -8
-13 -12 -13 -26 -1 -16 13 -16 15 2 21 24 10 33 10 33 2z m-460 -17 c0 -16
-18 -31 -27 -22 -8 8 5 36 17 36 5 0 10 -6 10 -14z m110 -16 c0 -11 -7 -20
-15 -20 -13 0 -14 4 -5 20 6 11 13 20 15 20 3 0 5 -9 5 -20z m-55 -19 c-3 -6
-11 -11 -17 -11 -6 0 -6 6 2 15 14 17 26 13 15 -4z m90 -32 c8 -23 1 -34 -14
-24 -13 8 -15 45 -2 45 5 0 13 -9 16 -21z m-45 -9 c-8 -5 -22 -9 -30 -9 -10 0
-8 3 5 9 27 12 43 12 25 0z m-170 -14 c0 -2 -8 -10 -17 -17 -16 -13 -17 -12
-4 4 13 16 21 21 21 13z m50 -41 c0 -8 -4 -15 -8 -15 -5 0 -9 7 -9 15 0 8 4
15 9 15 4 0 8 -7 8 -15z m110 -11 c0 -8 -5 -12 -10 -9 -6 4 -8 11 -5 16 9 14
15 11 15 -7z m30 -14 c0 -5 -5 -10 -11 -10 -5 0 -7 5 -4 10 3 6 8 10 11 10 2
0 4 -4 4 -10z m-3720 -34 c0 -2 -9 -6 -20 -9 -11 -3 -18 -1 -14 4 5 9 34 13
34 5z m4160 -76 c0 -5 -4 -10 -9 -10 -6 0 -13 5 -16 10 -3 6 1 10 9 10 9 0 16
-4 16 -10z m-2380 -64 c0 -3 -4 -8 -10 -11 -5 -3 -10 -1 -10 4 0 6 5 11 10 11
6 0 10 -2 10 -4z m-945 -166 c3 -5 1 -10 -4 -10 -6 0 -11 5 -11 10 0 6 2 10 4
10 3 0 8 -4 11 -10z m2435 -174 c0 -8 -4 -18 -10 -21 -5 -3 -10 -4 -10 -1 0 2
-3 11 -6 20 -4 11 -1 16 10 16 9 0 16 -6 16 -14z m-1800 -32 c0 -2 -9 -4 -20
-4 -11 0 -20 4 -20 9 0 5 9 7 20 4 11 -3 20 -7 20 -9z m1970 -44 c0 -5 -4 -10
-10 -10 -5 0 -10 5 -10 10 0 6 5 10 10 10 6 0 10 -4 10 -10z m-1525 -30 c-3
-5 -13 -10 -21 -10 -8 0 -12 5 -9 10 3 6 13 10 21 10 8 0 12 -4 9 -10z m212
-6 c-3 -3 -12 -4 -19 -1 -8 3 -5 6 6 6 11 1 17 -2 13 -5z m1103 -15 c0 -3 -11
-11 -24 -17 -20 -9 -27 -7 -41 9 -17 18 -17 19 24 16 22 -1 41 -5 41 -8z
m-1390 -23 c0 -2 -7 -6 -15 -10 -8 -3 -15 -1 -15 4 0 6 7 10 15 10 8 0 15 -2
15 -4z m167 -42 c-3 -3 -12 -4 -19 -1 -8 3 -5 6 6 6 11 1 17 -2 13 -5z m-850
-61 c-3 -10 -5 -4 -5 12 0 17 2 24 5 18 2 -7 2 -21 0 -30z m463 -57 c0 -3 -4
-8 -10 -11 -5 -3 -10 -1 -10 4 0 6 5 11 10 11 6 0 10 -2 10 -4z m420 -26 c0
-5 -4 -10 -10 -10 -5 0 -10 5 -10 10 0 6 5 10 10 10 6 0 10 -4 10 -10z m-468
-52 c-7 -7 -12 -8 -12 -2 0 14 12 26 19 19 2 -3 -1 -11 -7 -17z m683 -48 c3
-5 -1 -10 -9 -10 -9 0 -16 5 -16 10 0 6 4 10 9 10 6 0 13 -4 16 -10z"/>
</g>
</svg>
