<?xml version="1.0" standalone="no"?>
<!DOCTYPE svg PUBLIC "-//W3C//DTD SVG 20010904//EN"
 "http://www.w3.org/TR/2001/REC-SVG-20010904/DTD/svg10.dtd">
<svg version="1.0" xmlns="http://www.w3.org/2000/svg"
 width="992.000000pt" height="431.000000pt" viewBox="0 0 992.000000 431.000000"
 preserveAspectRatio="xMidYMid meet">

<g transform="translate(0.000000,431.000000) scale(0.100000,-0.100000)"
fill="#000000" stroke="none">
<path d="M9035 4045 c-132 -24 -307 -55 -390 -70 -82 -14 -197 -35 -255 -45
-58 -11 -148 -27 -200 -36 l-95 -17 43 -15 c64 -21 42 -27 -28 -8 -72 20 -130
14 -130 -15 0 -11 -4 -19 -10 -19 -5 0 -10 7 -10 15 0 8 -6 15 -12 15 -48 -1
-563 -100 -566 -109 -3 -8 -8 -9 -15 -2 -8 6 -51 2 -123 -11 -99 -19 -111 -23
-106 -40 2 -10 14 -25 25 -33 17 -12 19 -17 8 -27 -11 -11 -15 -9 -25 6 -32
53 -41 59 -64 45 -19 -12 -24 -12 -31 0 -7 11 -35 9 -167 -14 -195 -33 -190
-31 -174 -50 10 -12 9 -20 -5 -42 -31 -49 -58 -73 -82 -73 -25 0 -29 -10 -11
-28 8 -8 8 -15 -2 -27 -10 -12 -10 -18 0 -30 16 -19 8 -40 -15 -40 -10 0 -20
-6 -22 -13 -3 -7 1 -10 9 -7 11 4 529 96 1178 210 107 19 361 64 564 100 204
36 374 65 378 65 5 0 6 5 2 12 -5 8 2 9 24 5 19 -4 99 6 197 23 90 17 166 30
169 30 2 0 7 -19 11 -42 12 -76 10 -74 100 -94 47 -10 85 -21 85 -24 0 -8
-121 -4 -146 4 -20 7 -21 6 -11 -48 8 -41 13 -53 22 -46 20 16 25 -1 10 -30
-12 -22 -13 -40 -5 -82 29 -154 93 -510 100 -557 5 -30 14 -57 20 -61 7 -5 8
-9 2 -11 -11 -5 47 -352 60 -357 5 -2 6 -8 2 -13 -3 -5 -2 -29 2 -54 5 -39 8
-44 22 -33 13 11 14 10 8 -10 -5 -14 -3 -29 4 -38 8 -9 10 -31 6 -62 -3 -27 0
-83 9 -131 8 -47 14 -86 12 -87 -1 -1 -96 -19 -212 -39 -115 -21 -215 -42
-222 -47 -7 -5 -17 -7 -22 -4 -5 4 -87 -7 -182 -24 -121 -22 -179 -36 -197
-50 -30 -24 -50 -26 -31 -3 13 15 11 16 -16 10 -16 -3 -126 -22 -242 -43 -228
-40 -232 -42 -197 -92 22 -31 15 -35 -40 -21 -47 12 -62 29 -26 29 10 0 24 9
30 20 13 24 11 24 -76 9 -61 -11 -63 -12 -50 -32 8 -12 17 -32 21 -45 6 -21 4
-23 -17 -20 -15 2 -24 11 -26 24 -2 12 -11 29 -21 38 -16 15 -29 14 -162 -10
-79 -14 -178 -32 -219 -40 -41 -8 -91 -16 -110 -19 -19 -2 -63 -9 -97 -15 -50
-10 -63 -16 -63 -31 0 -10 -9 -23 -20 -29 -11 -6 -20 -17 -20 -25 0 -8 -4 -15
-10 -15 -12 0 -13 10 -1 29 6 9 6 22 0 33 -7 13 -17 16 -42 11 -17 -4 -38 -12
-45 -20 -16 -15 -29 -17 -34 -4 -5 15 -257 -35 -280 -55 -14 -14 -18 -14 -13
-3 5 13 -2 14 -55 5 l-60 -10 34 -35 c18 -20 43 -57 54 -84 12 -26 26 -47 31
-47 6 0 11 -11 11 -25 0 -14 6 -28 14 -31 7 -3 53 2 102 11 125 22 134 24 131
33 -1 4 3 7 8 7 6 0 9 -3 8 -7 -5 -13 72 5 84 20 9 11 16 12 25 4 12 -10 115
4 245 33 l22 5 -21 36 c-11 19 -18 37 -15 40 4 4 17 -14 52 -73 4 -7 461 80
463 88 2 5 8 6 13 3 6 -3 48 0 94 7 l83 12 -5 33 c-7 42 2 43 22 3 11 -20 22
-28 33 -25 9 2 50 10 90 16 50 8 72 16 72 26 0 16 12 18 26 4 7 -7 181 20 525
81 282 49 566 99 629 110 220 37 222 38 216 62 -3 12 -39 218 -81 457 -42 239
-80 451 -84 470 -5 19 -18 91 -30 160 -46 269 -182 1058 -192 1108 -6 29 -16
51 -22 51 -7 -1 -120 -21 -252 -44z m261 -71 c8 -44 -11 -71 -22 -30 -6 24
-34 38 -34 16 0 -5 -10 -10 -22 -10 -12 0 -40 -17 -63 -39 -34 -33 -49 -39
-98 -45 -39 -4 -56 -3 -52 4 3 5 26 10 51 10 39 0 50 5 87 41 36 35 118 87
139 89 4 0 10 -16 14 -36z m-426 -54 c0 -5 -2 -10 -4 -10 -3 0 -8 5 -11 10 -3
6 -1 10 4 10 6 0 11 -4 11 -10z m49 -11 c-16 -10 -23 -4 -14 10 3 6 11 8 17 5
6 -4 5 -9 -3 -15z m21 -49 c0 -5 -7 -10 -16 -10 -8 0 -12 5 -9 10 3 6 10 10
16 10 5 0 9 -4 9 -10z m-600 -16 c0 -8 -5 -12 -10 -9 -6 4 -8 11 -5 16 9 14
15 11 15 -7z m70 -45 c0 -6 -6 -9 -14 -6 -7 3 -19 0 -25 -6 -7 -7 -11 -7 -11
-1 0 16 11 24 32 24 10 0 18 -5 18 -11z m194 -4 c18 -14 18 -15 2 -21 -11 -4
-22 -1 -27 7 -19 31 -6 38 25 14z m-89 -15 c-3 -5 -13 -10 -21 -10 -8 0 -12 5
-9 10 3 6 13 10 21 10 8 0 12 -4 9 -10z m750 -10 c-3 -5 -13 -10 -21 -10 -8 0
-12 5 -9 10 3 6 13 10 21 10 8 0 12 -4 9 -10z m-585 -10 c0 -5 -4 -10 -10 -10
-5 0 -10 5 -10 10 0 6 5 10 10 10 6 0 10 -4 10 -10z m-1052 -19 c-7 -11 -16
-17 -20 -14 -10 5 10 33 23 33 5 0 4 -9 -3 -19z m282 9 c0 -5 -7 -10 -16 -10
-8 0 -12 5 -9 10 3 6 10 10 16 10 5 0 9 -4 9 -10z m277 -92 c-3 -8 -6 -5 -6 6
-1 11 2 17 5 13 3 -3 4 -12 1 -19z m-440 -25 c-9 -9 -20 -13 -24 -9 -4 4 1 14
11 22 25 18 35 8 13 -13z m-427 2 c7 -8 21 -15 31 -15 11 0 19 -7 19 -15 0 -8
14 -21 30 -30 34 -18 42 -55 11 -55 -10 0 -24 6 -31 14 -6 8 -23 16 -38 18
-18 2 -28 10 -32 28 -5 22 -11 25 -55 25 -40 0 -50 4 -53 18 -3 15 2 17 32 15
19 -1 38 1 42 5 12 11 31 8 44 -8z m440 -25 c0 -5 -4 -10 -10 -10 -5 0 -10 5
-10 10 0 6 5 10 10 10 6 0 10 -4 10 -10z m-756 -46 c-10 -15 -20 -22 -22 -16
-2 6 5 23 14 38 10 15 20 22 22 16 2 -6 -5 -23 -14 -38z m236 -54 c0 -5 -5
-10 -11 -10 -5 0 -7 5 -4 10 3 6 8 10 11 10 2 0 4 -4 4 -10z m-310 -34 c0 -3
-4 -8 -10 -11 -5 -3 -10 -1 -10 4 0 6 5 11 10 11 6 0 10 -2 10 -4z m2284 -108
c5 -21 3 -28 -9 -28 -15 0 -22 40 -8 53 8 9 9 8 17 -25z m62 -100 c9 -17 13
-40 10 -53 -4 -15 3 -35 20 -60 28 -42 20 -65 -22 -65 -21 0 -24 5 -24 39 0
69 -22 143 -44 149 -18 5 -18 6 -2 18 24 17 43 8 62 -28z m134 -408 c0 -5 -4
-10 -10 -10 -5 0 -10 5 -10 10 0 6 5 10 10 10 6 0 10 -4 10 -10z m-61 -42 c-6
-10 -14 -16 -20 -13 -5 4 -8 9 -6 13 2 4 7 16 11 27 6 16 9 17 16 5 5 -8 5
-21 -1 -32z m-19 -103 c0 -19 -4 -35 -10 -35 -11 0 -14 53 -3 63 11 12 13 8
13 -28z m154 -246 c-25 -27 -28 -17 -8 23 14 26 19 29 22 15 2 -10 -4 -27 -14
-38z m56 -449 c0 -5 -4 -10 -10 -10 -5 0 -10 5 -10 10 0 6 5 10 10 10 6 0 10
-4 10 -10z m-400 -89 c0 -5 -7 -14 -15 -21 -12 -10 -15 -10 -15 2 0 8 3 18 7
21 9 10 23 9 23 -2z m387 -6 c9 -25 -4 -29 -17 -6 -7 15 -7 21 0 21 6 0 13 -7
17 -15z m-87 -21 c0 -8 -5 -12 -10 -9 -6 4 -8 11 -5 16 9 14 15 11 15 -7z
m-421 -43 c34 -15 39 -20 28 -30 -8 -6 -25 -10 -38 -10 -13 1 -36 -2 -51 -6
-26 -7 -28 -5 -28 22 0 49 21 55 89 24z m-531 -53 c-11 -50 -18 -61 -18 -27 0
33 11 69 20 69 4 0 4 -19 -2 -42z m42 -29 c0 -5 -4 -9 -10 -9 -5 0 -10 7 -10
16 0 8 5 12 10 9 6 -3 10 -10 10 -16z m517 -15 c-9 -9 -28 6 -21 18 4 6 10 6
17 -1 6 -6 8 -13 4 -17z m-347 -44 c0 -5 -4 -10 -10 -10 -5 0 -10 5 -10 10 0
6 5 10 10 10 6 0 10 -4 10 -10z m114 -24 c-24 -18 -29 -14 -12 13 8 13 16 17
22 11 6 -6 3 -15 -10 -24z m-970 -2 c29 -29 64 -114 47 -114 -4 0 -13 17 -19
39 -19 63 -28 66 -132 41 -87 -20 -137 -20 -125 1 4 5 14 9 25 9 10 0 21 7 24
16 5 13 18 15 65 12 33 -1 63 0 67 5 12 12 31 8 48 -9z m375 -50 c17 -14 31
-30 31 -35 0 -16 -38 -10 -44 7 -5 13 -15 15 -54 9 -34 -4 -52 -2 -67 9 -16
12 -17 15 -5 20 65 22 105 19 139 -10z m111 22 c0 -3 -4 -8 -10 -11 -5 -3 -10
-1 -10 4 0 6 5 11 10 11 6 0 10 -2 10 -4z m130 -5 c0 -11 -31 -24 -39 -16 -3
3 1 10 9 15 19 12 30 12 30 1z m-870 -32 c0 -10 -67 -29 -100 -28 -20 1 -15 5
25 24 47 21 75 23 75 4z m430 1 c0 -5 -4 -10 -9 -10 -6 0 -13 5 -16 10 -3 6 1
10 9 10 9 0 16 -4 16 -10z m360 -10 c0 -5 -4 -10 -10 -10 -5 0 -10 5 -10 10 0
6 5 10 10 10 6 0 10 -4 10 -10z m-1360 -49 c0 -5 -7 -12 -16 -15 -22 -9 -24
-8 -24 9 0 8 9 15 20 15 11 0 20 -4 20 -9z m285 -1 c-3 -5 -12 -7 -20 -3 -21
7 -19 13 6 13 11 0 18 -4 14 -10z m-355 -14 c0 -3 -4 -8 -10 -11 -5 -3 -10 -1
-10 4 0 6 5 11 10 11 6 0 10 -2 10 -4z m210 -6 c0 -5 -4 -10 -10 -10 -5 0 -10
5 -10 10 0 6 5 10 10 10 6 0 10 -4 10 -10z m-230 -29 c0 -10 -119 -45 -128
-37 -8 9 2 16 45 31 44 16 83 19 83 6z"/>
<path d="M6400 3580 c-118 -22 -229 -42 -246 -45 -28 -5 -31 -9 -26 -33 7 -42
22 -54 55 -48 31 6 71 -9 62 -24 -3 -5 -34 -7 -68 -5 l-62 4 -20 43 c-11 24
-20 44 -21 46 -1 2 -162 -25 -358 -60 -300 -53 -356 -65 -356 -79 0 -9 -10
-19 -22 -22 -24 -7 -38 -1 -38 14 0 6 4 8 9 4 5 -3 13 0 17 6 4 8 -2 9 -22 5
-16 -3 -108 -19 -204 -37 -110 -19 -182 -37 -194 -47 -11 -10 -16 -11 -12 -4
5 8 -2 12 -25 12 -18 0 -29 -3 -26 -7 4 -3 -3 -21 -14 -39 -13 -21 -18 -41
-14 -54 4 -14 2 -20 -9 -20 -12 0 -13 10 -9 53 l5 54 -61 -10 c-45 -7 -62 -14
-66 -28 -6 -18 -64 -69 -78 -69 -16 0 -5 19 13 25 19 6 46 42 38 50 -2 2 -78
-9 -168 -26 -91 -17 -198 -35 -237 -42 l-73 -11 -15 -52 c-8 -29 -15 -57 -15
-63 0 -6 -4 -11 -9 -11 -19 0 -22 20 -7 42 9 12 16 35 16 51 0 25 -3 28 -22
24 -13 -3 -95 -18 -183 -33 -145 -25 -163 -30 -192 -57 -18 -16 -33 -41 -35
-55 -2 -14 -8 -27 -14 -29 -18 -6 -23 31 -8 52 8 10 14 25 14 32 0 18 -39 16
-46 -2 -5 -11 -16 -13 -45 -9 -35 6 -42 3 -75 -30 -29 -29 -39 -34 -54 -26
-31 17 -53 11 -77 -17 -21 -27 -22 -27 -23 -6 0 12 8 29 17 39 17 17 17 17 -7
12 -14 -4 -97 -19 -186 -34 l-161 -27 -27 -44 c-14 -24 -26 -48 -26 -53 0 -6
-4 -10 -10 -10 -14 0 -13 11 9 56 11 21 18 40 17 41 -4 5 -620 -106 -661 -118
-22 -7 -44 -12 -49 -10 -5 1 -53 -6 -108 -15 -73 -13 -97 -21 -94 -31 3 -7 0
-13 -5 -13 -6 0 -27 -13 -46 -30 -18 -16 -38 -30 -43 -30 -20 0 -9 20 25 46
20 15 34 28 32 30 -4 4 -253 -34 -277 -42 -13 -5 23 -32 78 -60 8 -4 29 9 53
32 l40 39 -3 -35 c-2 -29 -8 -36 -28 -38 -44 -6 -45 -19 -5 -64 40 -44 90 -65
111 -47 8 6 13 3 17 -12 5 -19 10 -20 48 -14 28 5 50 16 62 32 11 13 22 22 25
19 2 -3 -1 -12 -8 -21 -16 -19 -23 -20 175 15 94 16 216 37 273 47 88 14 101
19 97 34 -5 15 2 17 67 13 98 -5 438 53 438 74 0 11 3 12 14 3 11 -9 53 -5
188 19 95 16 215 37 266 46 90 16 110 27 75 42 -10 4 -18 14 -18 22 0 8 -10
16 -22 18 -22 3 -22 4 10 43 40 48 48 49 34 4 -9 -32 -8 -37 12 -51 16 -12 21
-23 17 -38 l-6 -23 123 23 c115 22 617 110 992 175 211 36 215 37 215 50 0 6
9 22 20 36 11 14 20 35 20 47 0 30 22 58 38 48 9 -6 7 -22 -12 -68 -13 -32
-23 -61 -21 -63 2 -1 103 14 225 35 208 37 223 41 236 64 l13 25 1 -24 c0 -19
4 -22 23 -18 12 3 93 18 179 33 l157 27 -6 29 c-3 16 0 34 7 43 14 17 50 20
50 5 0 -5 -9 -10 -20 -10 -25 0 -25 -8 0 -35 19 -20 26 -21 67 -14 60 12 64
17 25 31 -18 7 -32 16 -32 20 0 4 20 -2 45 -14 l44 -22 158 28 c133 23 161 31
178 50 11 13 28 26 37 29 14 5 15 12 8 37 -5 16 -18 42 -29 56 -27 34 -27 64
-1 64 15 0 20 -7 20 -24 0 -48 21 -44 94 18 23 19 27 29 22 50 -8 33 -1 33
-266 -14z m-40 -141 c-7 -11 -14 -19 -16 -16 -7 7 7 37 17 37 6 0 5 -9 -1 -21z
m-585 -94 c-15 -54 -35 -74 -35 -36 0 24 -8 30 -62 40 l-43 9 53 1 53 1 22 48
c20 44 22 45 25 19 2 -15 -4 -52 -13 -82z m725 46 c0 -12 -20 -25 -27 -18 -7
7 6 27 18 27 5 0 9 -4 9 -9z m-50 -31 c0 -11 -4 -20 -9 -20 -5 0 -7 9 -4 20 3
11 7 20 9 20 2 0 4 -9 4 -20z m-1230 -10 c0 -5 -5 -10 -11 -10 -5 0 -7 5 -4
10 3 6 8 10 11 10 2 0 4 -4 4 -10z m740 -7 c0 -12 -109 -13 -115 -2 -4 5 19 9
54 9 34 0 61 -3 61 -7z m-240 -103 c-6 -12 -14 -19 -17 -17 -2 3 1 15 7 27 6
12 14 19 17 17 2 -3 -1 -15 -7 -27z m-1270 -224 c0 -16 -19 -25 -37 -19 -19 7
-16 21 5 26 29 8 32 7 32 -7z m-283 -38 c-3 -8 -6 -5 -6 6 -1 11 2 17 5 13 3
-3 4 -12 1 -19z m-842 -24 c-11 -9 -37 -25 -58 -35 -36 -19 -38 -19 -35 -2 2
10 18 22 40 28 20 5 40 13 44 18 4 4 12 7 18 7 6 0 2 -8 -9 -16z m345 -34 c0
-5 -5 -10 -11 -10 -5 0 -7 5 -4 10 3 6 8 10 11 10 2 0 4 -4 4 -10z m-570 -20
c0 -5 -4 -10 -10 -10 -5 0 -10 5 -10 10 0 6 5 10 10 10 6 0 10 -4 10 -10z
m-420 -10 c0 -5 -4 -10 -10 -10 -5 0 -10 5 -10 10 0 6 5 10 10 10 6 0 10 -4
10 -10z m240 0 c0 -5 -4 -10 -10 -10 -5 0 -10 5 -10 10 0 6 5 10 10 10 6 0 10
-4 10 -10z m-120 -30 c0 -5 -4 -10 -10 -10 -5 0 -10 5 -10 10 0 6 5 10 10 10
6 0 10 -4 10 -10z m396 -47 c-4 -4 -11 -1 -16 7 -16 25 -11 35 7 17 9 -9 13
-20 9 -24z m-430 -19 c-3 -8 -10 -13 -16 -9 -6 3 -5 16 3 32 9 21 13 23 15 9
2 -9 1 -24 -2 -32z m234 16 c0 -5 -4 -10 -10 -10 -5 0 -10 5 -10 10 0 6 5 10
10 10 6 0 10 -4 10 -10z m-677 -20 c-3 -11 -7 -20 -9 -20 -2 0 -4 9 -4 20 0
11 4 20 9 20 5 0 7 -9 4 -20z m377 -11 c0 -6 -4 -7 -10 -4 -5 3 -10 11 -10 16
0 6 5 7 10 4 6 -3 10 -11 10 -16z m-617 -34 c-3 -8 -9 -15 -14 -15 -10 0 -12
24 -3 33 11 11 24 -3 17 -18z m437 -15 c0 -10 -52 -40 -71 -40 -16 0 10 30 36
40 27 12 35 12 35 0z m-240 -8 c0 -13 -12 -22 -22 -16 -10 6 -1 24 13 24 5 0
9 -4 9 -8z m35 -31 c-8 -36 -25 -41 -25 -8 0 22 19 51 28 43 2 -3 1 -18 -3
-35z m-275 9 c0 -5 -5 -10 -11 -10 -5 0 -7 5 -4 10 3 6 8 10 11 10 2 0 4 -4 4
-10z"/>
<path d="M8376 3445 c-20 -10 -32 -12 -36 -5 -5 7 -28 7 -78 -2 -39 -6 -66
-15 -60 -19 9 -6 8 -11 -1 -23 -19 -22 -34 -20 -28 4 6 24 13 24 -105 3 -112
-19 -107 -11 -82 -125 8 -40 18 -91 21 -113 13 -97 20 -120 33 -117 10 2 11 0
2 -10 -8 -10 -8 -35 2 -96 15 -90 26 -116 26 -59 0 21 5 37 10 37 15 0 12 -53
-3 -75 -11 -15 -12 -29 -1 -84 7 -36 24 -133 39 -216 14 -82 28 -151 30 -153
1 -2 21 2 42 8 30 9 43 20 55 48 8 19 18 31 21 26 3 -6 -1 -24 -10 -42 -11
-24 -26 -35 -55 -42 -21 -6 -42 -18 -45 -25 -5 -14 47 -329 57 -344 3 -5 77 5
165 21 158 29 160 30 192 66 57 65 35 95 -37 50 -19 -11 -53 -23 -75 -25 -37
-3 -39 -2 -21 12 11 8 32 15 47 15 15 0 35 8 45 18 10 9 22 17 28 18 25 1 55
16 60 29 3 8 16 15 29 15 14 0 30 7 37 15 10 12 16 13 27 3 11 -9 21 -8 45 7
23 13 29 14 26 4 -3 -8 -23 -21 -45 -29 -23 -8 -53 -26 -66 -40 -14 -14 -30
-29 -36 -35 -6 -5 -23 -27 -36 -48 l-26 -39 33 7 c103 23 185 74 223 140 30
51 30 51 5 58 -17 4 -19 11 -14 31 5 22 3 26 -15 26 -14 0 -21 6 -21 20 0 12
-12 26 -30 35 -34 18 -41 40 -10 30 29 -9 45 8 60 60 13 46 40 82 40 52 0 -8
-9 -34 -20 -58 -25 -56 -25 -62 5 -97 29 -35 31 -49 8 -74 -15 -16 -15 -18 0
-18 38 0 52 98 36 248 -9 86 -15 112 -32 130 -22 23 -24 61 -6 73 10 6 -25
212 -62 372 -25 106 -87 235 -132 273 -70 60 -204 90 -261 59z m-66 -64 c0 -6
-4 -13 -10 -16 -5 -3 -10 1 -10 9 0 9 5 16 10 16 6 0 10 -4 10 -9z m310 -31
c8 -5 12 -12 9 -15 -8 -8 -39 5 -39 16 0 11 11 11 30 -1z m-424 -64 c-10 -39
-23 -31 -18 10 3 24 8 32 14 26 6 -6 8 -22 4 -36z m-76 5 c0 -12 -20 -25 -27
-18 -7 7 6 27 18 27 5 0 9 -4 9 -9z m480 -101 c-8 -5 -22 -9 -30 -9 -10 0 -8
3 5 9 27 12 43 12 25 0z m-159 -26 c33 -29 49 -75 79 -233 16 -83 34 -147 41
-152 10 -6 11 -11 3 -19 -7 -7 -5 -41 6 -111 14 -93 18 -103 48 -127 36 -30
43 -62 13 -62 -11 0 -18 6 -17 16 0 9 -5 19 -11 21 -10 3 -13 -11 -13 -50 0
-70 -29 -108 -96 -127 -57 -16 -58 -15 -75 98 -7 46 -18 89 -24 96 -16 16 -25
55 -14 62 10 6 1 79 -13 107 -5 9 -20 17 -33 17 -13 0 -27 5 -31 11 -5 9 3 10
28 5 l35 -6 -28 162 c-16 90 -29 166 -29 170 0 4 -7 5 -15 2 -8 -4 -15 -12
-15 -20 0 -9 -11 -14 -30 -14 -28 0 -70 -29 -70 -48 0 -8 -43 -32 -55 -32 -3
0 -5 9 -5 19 0 22 108 101 138 101 26 0 42 20 42 52 0 20 -4 26 -15 22 -8 -4
-15 -1 -15 5 0 6 5 11 10 11 6 0 10 9 10 19 0 26 15 31 77 27 34 -2 60 -9 74
-22z m-211 -104 c0 -5 -4 -10 -10 -10 -5 0 -10 5 -10 10 0 6 5 10 10 10 6 0
10 -4 10 -10z m370 -55 c-13 -14 -28 -25 -34 -25 -5 0 3 13 19 30 16 16 31 28
33 25 3 -3 -5 -16 -18 -30z m-366 -204 c16 -18 16 -18 -9 -14 -25 5 -31 14
-18 26 9 9 8 10 27 -12z m-74 -71 c-6 -11 -16 -17 -22 -14 -7 5 -5 12 7 21 25
18 28 17 15 -7z m620 -10 c0 -5 -7 -10 -16 -10 -8 0 -12 5 -9 10 3 6 10 10 16
10 5 0 9 -4 9 -10z m-52 -32 c-3 -7 -13 -15 -24 -17 -16 -3 -17 -1 -5 13 16
19 34 21 29 4z m-438 -48 c0 -5 -4 -10 -10 -10 -5 0 -10 5 -10 10 0 6 5 10 10
10 6 0 10 -4 10 -10z m-40 -60 c0 -5 -7 -10 -16 -10 -8 0 -12 5 -9 10 3 6 10
10 16 10 5 0 9 -4 9 -10z m440 -39 c-6 -12 -15 -21 -21 -21 -5 0 -2 15 7 33
10 17 19 27 21 20 2 -7 -1 -21 -7 -32z m-351 -17 c-6 -8 -15 -14 -20 -14 -14
0 -11 28 4 33 20 7 29 -4 16 -19z m-92 -179 c3 -9 -2 -23 -10 -33 -8 -9 -19
-29 -22 -45 -8 -30 -25 -47 -25 -24 0 8 6 27 14 43 10 19 12 33 5 45 -13 25
-12 29 11 29 11 0 23 -7 27 -15z m503 -15 c0 -5 -5 -10 -11 -10 -5 0 -7 5 -4
10 3 6 8 10 11 10 2 0 4 -4 4 -10z m-425 -20 c3 -5 -1 -10 -9 -10 -8 0 -18 5
-21 10 -3 6 1 10 9 10 8 0 18 -4 21 -10z m425 -20 c0 -5 -5 -10 -11 -10 -5 0
-7 5 -4 10 3 6 8 10 11 10 2 0 4 -4 4 -10z m-360 -209 c0 -6 -4 -13 -10 -16
-5 -3 -10 1 -10 9 0 9 5 16 10 16 6 0 10 -4 10 -9z"/>
<path d="M7666 3334 c-39 -8 -73 -19 -77 -25 -4 -6 -11 -9 -17 -5 -6 3 -14 2
-17 -4 -4 -7 -11 -8 -18 -2 -15 12 -177 -16 -177 -30 0 -5 -9 -6 -21 -3 -17 6
-123 -7 -165 -20 -8 -2 -5 -36 8 -112 24 -140 22 -135 60 -131 l32 3 1 -49 c0
-56 -18 -72 -36 -32 -7 14 -15 26 -19 26 -3 0 12 -105 35 -232 31 -175 45
-234 56 -236 8 -1 19 -13 24 -25 8 -17 17 -21 38 -19 18 2 26 -1 22 -7 -3 -6
-12 -11 -20 -11 -7 0 -23 -14 -35 -30 l-22 -31 43 -245 c41 -232 44 -245 64
-240 11 2 153 28 315 56 162 29 296 53 297 54 3 3 -46 269 -51 273 -2 2 -79
-10 -172 -27 -93 -16 -174 -30 -179 -30 -9 0 -35 118 -51 230 -2 19 -7 43 -10
52 -4 13 4 18 43 24 136 20 288 52 288 60 -1 26 -18 120 -23 129 -3 5 -6 19
-7 30 -7 116 2 111 -146 84 -77 -14 -129 -28 -136 -37 -10 -12 -13 -12 -13 -3
0 9 -8 11 -24 7 -14 -3 -27 -3 -29 1 -4 7 -47 232 -47 246 0 2 77 17 171 33
93 16 175 31 180 35 15 9 -22 219 -38 219 -7 0 -13 5 -13 11 0 5 5 7 10 4 6
-3 10 1 10 9 0 20 -36 19 -134 0z m-220 -121 c-10 -10 -19 5 -10 18 6 11 8 11
12 0 2 -7 1 -15 -2 -18z m-6 -73 c0 -5 -4 -10 -10 -10 -5 0 -10 5 -10 10 0 6
5 10 10 10 6 0 10 -4 10 -10z m-60 -60 c0 -5 -8 -10 -18 -10 -10 0 -23 -5 -30
-12 -6 -6 -15 -8 -19 -4 -10 10 25 36 49 36 10 0 18 -4 18 -10z m-100 -240 c0
-5 -4 -10 -9 -10 -6 0 -13 5 -16 10 -3 6 1 10 9 10 9 0 16 -4 16 -10z m100
-120 c0 -5 -4 -10 -10 -10 -5 0 -10 5 -10 10 0 6 5 10 10 10 6 0 10 -4 10 -10z
m135 -31 c25 -23 45 -45 45 -50 0 -9 -61 -28 -72 -22 -4 2 -2 15 4 28 13 29 5
55 -18 55 -12 0 -15 -6 -10 -25 7 -29 -9 -34 -22 -7 -11 19 2 62 18 62 6 0 31
-19 55 -41z m325 -84 c-14 -16 -50 -21 -50 -6 0 9 20 17 49 20 11 1 11 -2 1
-14z m-450 -25 c0 -5 -4 -10 -10 -10 -5 0 -10 5 -10 10 0 6 5 10 10 10 6 0 10
-4 10 -10z m190 -10 c0 -5 -2 -10 -4 -10 -3 0 -8 5 -11 10 -3 6 -1 10 4 10 6
0 11 -4 11 -10z m54 -31 c-3 -5 -10 -7 -15 -3 -5 3 -7 10 -3 15 3 5 10 7 15 3
5 -3 7 -10 3 -15z m-174 -9 c0 -5 -4 -10 -10 -10 -5 0 -10 5 -10 10 0 6 5 10
10 10 6 0 10 -4 10 -10z m70 -65 c0 -8 -7 -15 -15 -15 -16 0 -20 12 -8 23 11
12 23 8 23 -8z m-106 -94 c29 -32 14 -38 -19 -8 -21 19 -25 27 -14 27 9 0 24
-9 33 -19z m66 -87 c0 -17 8 -27 24 -33 35 -14 53 -81 21 -81 -8 0 -15 4 -15
9 0 5 -10 11 -22 15 -21 5 -23 12 -24 65 -1 33 3 58 7 55 5 -3 9 -16 9 -30z
m460 -84 c0 -5 -4 -10 -10 -10 -5 0 -10 5 -10 10 0 6 5 10 10 10 6 0 10 -4 10
-10z m-519 -83 c-13 -13 -26 -3 -16 12 3 6 11 8 17 5 6 -4 6 -10 -1 -17z m124
13 c-3 -5 -11 -10 -16 -10 -6 0 -7 5 -4 10 3 6 11 10 16 10 6 0 7 -4 4 -10z
m149 -46 c14 -15 26 -31 26 -35 0 -12 -57 -4 -73 10 -8 6 -27 8 -46 5 -44 -9
-39 4 12 26 53 25 49 25 81 -6z m-254 1 c-7 -8 -20 -15 -29 -15 -13 1 -13 3 3
15 26 19 42 19 26 0z m331 -18 c-16 -16 -26 0 -10 19 9 11 15 12 17 4 2 -6 -1
-17 -7 -23z m119 29 c0 -3 -4 -8 -10 -11 -5 -3 -10 -1 -10 4 0 6 5 11 10 11 6
0 10 -2 10 -4z m-70 -22 c0 -8 -5 -12 -10 -9 -6 4 -8 11 -5 16 9 14 15 11 15
-7z m-200 -78 c0 -7 -6 -21 -14 -31 -13 -18 -14 -17 -13 17 1 25 5 34 14 31 7
-3 13 -11 13 -17z"/>
<path d="M6692 3162 c-267 -48 -311 -58 -296 -69 10 -7 28 -13 40 -13 22 0 34
-27 26 -62 -5 -24 -22 -23 -22 1 0 20 -53 71 -73 71 -33 -1 -34 -15 -14 -130
10 -63 22 -118 26 -122 3 -4 38 -1 76 6 39 8 86 16 106 20 l37 7 7 -63 c6 -53
9 -59 20 -45 15 21 29 22 21 1 -4 -10 4 -28 20 -47 24 -29 25 -31 8 -38 -31
-12 -33 -11 -40 29 -4 20 -9 32 -11 26 -2 -7 10 -88 27 -180 35 -198 48 -270
95 -539 19 -110 38 -212 41 -226 l5 -26 130 22 c71 12 132 24 135 28 3 3 -11
94 -31 204 -20 109 -38 214 -41 233 -2 19 -25 150 -50 290 -48 271 -64 361
-64 371 0 4 44 14 98 24 53 9 104 19 113 21 15 4 14 14 -3 112 -11 59 -25 110
-31 114 -9 6 -9 8 0 8 7 0 10 7 7 15 -8 20 -7 20 -362 -43z m46 -434 c-2 -6
-10 -14 -16 -16 -7 -2 -10 2 -6 12 7 18 28 22 22 4z m42 8 c0 -3 -4 -8 -10
-11 -5 -3 -10 -1 -10 4 0 6 5 11 10 11 6 0 10 -2 10 -4z m45 -156 c3 -5 1 -10
-4 -10 -6 0 -11 5 -11 10 0 6 2 10 4 10 3 0 8 -4 11 -10z m49 -229 c-7 -7 -34
28 -34 43 1 6 10 0 21 -13 11 -13 17 -27 13 -30z m36 -57 c0 -8 -4 -12 -10 -9
-5 3 -10 10 -10 16 0 5 5 9 10 9 6 0 10 -7 10 -16z m-15 -75 c-4 -5 -13 -9
-22 -9 -13 0 -13 3 -3 15 13 15 35 11 25 -6z m-70 -19 c3 -5 1 -10 -4 -10 -6
0 -11 5 -11 10 0 6 2 10 4 10 3 0 8 -4 11 -10z m150 -30 c3 -5 1 -10 -4 -10
-6 0 -11 5 -11 10 0 6 2 10 4 10 3 0 8 -4 11 -10z"/>
<path d="M6035 3044 c-14 -6 -217 -45 -236 -45 -14 0 -17 -31 -22 -247 -11
-392 -9 -560 6 -565 9 -3 9 -7 0 -18 -18 -23 -20 -585 -1 -582 7 1 59 9 115
19 98 17 101 19 100 43 -2 19 3 27 18 29 19 3 20 9 17 111 -5 122 -10 113 80
126 74 10 87 54 43 141 -19 38 -22 50 -11 56 7 4 11 19 8 36 l-4 29 -65 -14
c-36 -7 -67 -12 -69 -10 -1 1 -8 124 -14 272 -6 149 -13 283 -16 299 -8 37 11
27 20 -11 8 -31 54 -180 63 -203 3 -8 7 -23 9 -32 2 -9 24 -79 48 -155 41
-129 63 -236 69 -343 2 -40 5 -45 25 -45 13 0 27 -7 32 -15 7 -11 11 -11 24
-1 13 11 16 11 16 -2 0 -9 -7 -20 -16 -25 -15 -8 -15 -14 1 -63 10 -30 25 -59
34 -66 9 -7 11 -13 4 -13 -8 0 -8 -9 0 -35 10 -32 13 -35 41 -30 17 4 76 14
131 24 90 16 100 20 98 38 -1 12 -30 96 -64 187 l-62 167 -37 -36 c-35 -34
-70 -46 -70 -24 0 21 21 48 33 43 12 -4 57 38 57 54 0 17 -295 801 -298 792
-8 -22 -17 -8 -19 28 -2 63 -18 92 -50 91 -16 0 -32 -2 -38 -5z m-124 -107
c-13 -13 -26 -3 -16 12 3 6 11 8 17 5 6 -4 6 -10 -1 -17z m259 -146 c0 -19
-18 -31 -46 -31 -12 0 -12 4 2 25 19 30 44 33 44 6z m-43 -72 c2 -8 -2 -21 -7
-29 -8 -12 -11 -13 -19 -1 -11 17 -2 53 13 48 6 -2 12 -10 13 -18z m-152 -90
c-10 -15 -25 -10 -19 6 4 8 10 12 15 9 5 -3 7 -10 4 -15z m155 -15 c0 -8 -4
-12 -10 -9 -5 3 -10 10 -10 16 0 5 5 9 10 9 6 0 10 -7 10 -16z m24 -113 c14
-26 14 -30 0 -35 -14 -5 -14 -9 -3 -23 8 -9 13 -24 11 -33 -1 -9 4 -23 13 -30
8 -7 15 -22 15 -33 0 -19 -1 -19 -19 -3 -42 38 -70 186 -35 186 2 0 10 -13 18
-29z m116 -81 c0 -5 -7 -10 -15 -10 -8 0 -15 5 -15 10 0 6 7 10 15 10 8 0 15
-4 15 -10z m-70 -186 c0 -8 -5 -12 -10 -9 -6 4 -8 11 -5 16 9 14 15 11 15 -7z
m-180 -373 c0 -13 -58 -32 -65 -21 -7 11 23 29 48 30 9 0 17 -4 17 -9z m-170
-81 c0 -6 -44 -30 -55 -30 -7 0 -6 56 1 63 7 7 54 -21 54 -33z m580 -12 c0
-19 -2 -20 -10 -8 -13 19 -13 30 0 30 6 0 10 -10 10 -22z m-70 -12 c0 -3 -4
-8 -10 -11 -5 -3 -10 -1 -10 4 0 6 5 11 10 11 6 0 10 -2 10 -4z m-564 -123
c-11 -11 -19 6 -11 24 8 17 8 17 12 0 3 -10 2 -21 -1 -24z"/>
<path d="M5290 2914 c-41 -7 -84 -16 -96 -18 l-21 -6 23 -127 c30 -169 57
-302 105 -507 21 -93 37 -171 36 -172 -2 -2 -27 48 -57 112 -39 84 -57 114
-69 112 -11 -3 -15 -13 -13 -34 4 -38 -35 -204 -52 -224 -13 -15 9 -66 226
-531 2 -5 277 38 285 45 1 1 -7 46 -17 101 -10 55 -32 181 -50 280 -43 254
-50 286 -60 280 -14 -9 -23 41 -16 85 3 22 2 40 -2 40 -5 0 -9 24 -10 53 0 46
-48 336 -57 345 -2 2 -12 -1 -22 -6 -10 -5 -24 -7 -30 -5 -23 8 -13 31 18 42
29 10 31 14 25 43 -4 18 -9 50 -13 71 -7 43 -10 44 -133 21z m77 -100 c8 -21
-13 -42 -28 -27 -13 13 -5 43 11 43 6 0 13 -7 17 -16z m-101 -249 c-1 -29 -16
-35 -16 -7 0 16 8 32 16 32 1 0 1 -11 0 -25z m271 -407 c-3 -8 -6 -5 -6 6 -1
11 2 17 5 13 3 -3 4 -12 1 -19z m-7 -148 c4 -26 0 -40 -10 -40 -5 0 -7 6 -4
14 3 8 -3 19 -16 26 -17 9 -19 14 -9 26 10 12 15 13 25 2 7 -7 13 -20 14 -28z
m-30 -169 c0 -6 -4 -13 -10 -16 -5 -3 -10 1 -10 9 0 9 5 16 10 16 6 0 10 -4
10 -9z m-118 -33 c-7 -7 -12 -8 -12 -2 0 14 12 26 19 19 2 -3 -1 -11 -7 -17z"/>
<path d="M4831 2833 c-74 -13 -136 -25 -138 -27 -3 -3 49 -310 91 -541 8 -44
18 -101 22 -127 3 -27 10 -48 14 -48 4 0 12 18 19 39 6 21 18 42 26 45 24 9
18 -34 -13 -86 l-28 -47 31 -178 c17 -98 34 -176 37 -173 3 3 14 -2 24 -11 11
-9 27 -19 37 -22 9 -4 17 -17 17 -29 0 -21 -22 -100 -39 -138 -4 -8 -5 -24 -3
-36 l3 -20 122 22 c67 13 122 23 123 24 4 2 -50 267 -56 274 -15 15 -40 -14
-40 -48 0 -42 -10 -76 -22 -76 -6 0 -7 9 -3 23 18 56 17 76 -5 107 -20 29 -24
30 -38 16 -13 -12 -13 -18 -3 -30 7 -9 11 -23 7 -31 -6 -16 -51 -21 -60 -6 -9
13 30 113 49 127 14 10 16 21 10 56 -4 24 -14 51 -23 61 -8 9 -10 17 -4 17 6
0 18 -10 27 -22 15 -22 17 -22 29 -5 29 39 28 83 -9 228 -20 78 -34 143 -32
145 1 2 23 -42 47 -96 24 -55 47 -100 50 -100 4 0 15 20 24 44 9 25 24 50 32
56 7 7 14 29 14 49 1 20 7 52 14 72 12 35 10 40 -96 270 -60 129 -112 237
-116 240 -4 3 -68 -5 -141 -18z m169 -133 c0 -5 -5 -10 -11 -10 -5 0 -7 5 -4
10 3 6 8 10 11 10 2 0 4 -4 4 -10z m11 -44 c-16 -17 -20 -30 -15 -50 5 -22 3
-26 -14 -26 -27 0 -31 8 -21 45 7 27 30 44 68 54 3 1 -6 -10 -18 -23z m-181
-61 c7 -9 29 -15 52 -15 27 0 38 -4 35 -12 -2 -8 -22 -13 -51 -13 -49 0 -65
-12 -66 -50 0 -11 -5 -27 -10 -35 -14 -22 -13 25 2 89 12 54 18 60 38 36z
m148 -108 c-5 -29 -21 -83 -35 -122 -13 -38 -27 -85 -30 -102 -9 -53 -23 -38
-23 25 0 60 6 76 30 84 16 5 21 35 20 107 0 46 13 73 34 65 10 -4 11 -17 4
-57z m-8 -387 c0 -5 -2 -10 -4 -10 -3 0 -8 5 -11 10 -3 6 -1 10 4 10 6 0 11
-4 11 -10z m-80 -140 c0 -5 -4 -10 -10 -10 -5 0 -10 5 -10 10 0 6 5 10 10 10
6 0 10 -4 10 -10z m55 -10 c3 -5 -1 -10 -10 -10 -9 0 -13 5 -10 10 3 6 8 10
10 10 2 0 7 -4 10 -10z m25 -114 c0 -3 -4 -8 -10 -11 -5 -3 -10 -1 -10 4 0 6
5 11 10 11 6 0 10 -2 10 -4z m-37 -74 c-3 -12 -9 -22 -14 -22 -12 0 -11 7 2
32 13 25 20 19 12 -10z m107 -156 c0 -2 -12 -12 -27 -21 l-28 -18 19 21 c17
20 36 29 36 18z m50 -51 c0 -8 -4 -15 -10 -15 -5 0 -10 7 -10 15 0 8 5 15 10
15 6 0 10 -7 10 -15z"/>
<path d="M4343 2748 c-64 -12 -113 -26 -113 -32 0 -14 131 -763 166 -946 7
-41 25 -142 39 -225 14 -82 27 -159 30 -171 4 -20 8 -20 62 -11 69 11 79 18
87 60 6 32 55 102 56 80 0 -7 -9 -36 -20 -65 -11 -28 -19 -53 -17 -54 3 -3 99
15 104 20 2 1 -18 126 -45 277 l-49 274 -31 6 c-23 5 -35 2 -47 -11 -25 -28
-55 -126 -55 -180 0 -44 -3 -51 -17 -48 -23 5 -20 40 12 149 l23 80 -23 15
c-15 10 -40 14 -66 12 -29 -2 -43 1 -47 11 -4 11 5 13 44 8 27 -4 59 -8 72 -9
19 -3 29 7 55 54 36 67 46 68 24 5 -17 -50 -9 -67 31 -67 21 0 23 3 18 25 -7
29 -33 171 -77 425 -16 96 -36 210 -44 254 -8 43 -15 80 -15 82 0 7 -44 2
-157 -18z m-53 -118 c0 -5 -5 -10 -11 -10 -5 0 -7 5 -4 10 3 6 8 10 11 10 2 0
4 -4 4 -10z m260 -380 c0 -5 -4 -10 -10 -10 -5 0 -10 5 -10 10 0 6 5 10 10 10
6 0 10 -4 10 -10z m-89 -587 c-8 -15 -10 -15 -11 -2 0 17 10 32 18 25 2 -3 -1
-13 -7 -23z"/>
<path d="M1650 2728 c-15 -17 -20 -18 -20 -6 0 13 -8 14 -70 3 -75 -13 -112
-41 -108 -81 2 -12 -3 -28 -10 -37 -11 -13 -11 -20 3 -41 11 -17 15 -35 11
-52 -4 -14 -4 -33 -1 -43 5 -16 27 -13 276 30 149 27 273 50 276 52 2 2 -10
10 -27 17 -28 12 -33 11 -58 -11 -25 -22 -26 -23 -8 -1 11 12 17 23 15 25 -2
1 -16 8 -30 16 -14 7 -33 26 -43 42 -9 16 -23 29 -31 29 -7 0 -16 9 -20 20
-17 55 -116 79 -155 38z m-99 -55 c-8 -15 -10 -15 -11 -2 0 17 10 32 18 25 2
-3 -1 -13 -7 -23z m200 -16 c-8 -8 -11 -7 -11 4 0 20 13 34 18 19 3 -7 -1 -17
-7 -23z m-149 -19 c-7 -7 -12 -8 -12 -2 0 14 12 26 19 19 2 -3 -1 -11 -7 -17z
m168 -62 c0 -3 -4 -8 -10 -11 -5 -3 -10 -1 -10 4 0 6 5 11 10 11 6 0 10 -2 10
-4z"/>
<path d="M1385 2695 c-5 -3 -75 -15 -155 -29 -323 -55 -1004 -177 -1007 -180
-2 -1 3 -36 11 -77 8 -41 26 -139 40 -219 76 -432 178 -1006 191 -1080 9 -47
47 -265 85 -484 38 -219 71 -401 74 -403 3 -3 751 126 1226 212 121 22 428 76
1025 181 110 19 247 43 305 54 58 10 224 40 370 65 342 59 320 54 320 72 0 11
5 13 18 7 27 -13 78 -7 309 35 120 22 392 70 606 107 l387 68 0 28 c0 15 5 28
10 28 6 0 10 -12 10 -27 1 -24 2 -25 11 -11 5 10 31 32 57 49 26 18 57 41 70
53 13 11 31 21 40 21 9 0 22 12 29 26 8 17 24 29 43 32 24 5 30 12 30 32 0 22
24 45 34 34 2 -2 0 -47 -4 -99 -4 -52 -6 -98 -4 -101 3 -6 270 38 464 75 41 8
176 32 298 53 l224 38 34 46 c51 70 88 80 58 15 -10 -19 -15 -38 -12 -41 5 -5
158 21 165 29 3 2 -1 14 -7 26 -6 11 -10 29 -8 38 2 9 -7 25 -19 35 -14 11
-23 29 -23 46 0 17 -11 38 -29 55 l-30 29 -128 -23 c-70 -12 -162 -28 -203
-36 -41 -8 -192 -35 -335 -60 -143 -25 -267 -52 -275 -59 -8 -7 -26 -11 -41
-8 -20 4 -31 -1 -43 -18 -8 -13 -19 -20 -22 -16 -4 4 -1 14 7 23 12 15 11 16
-16 11 -17 -4 -120 -22 -230 -42 -538 -94 -539 -95 -569 -116 -24 -18 -32 -20
-49 -9 -30 18 -297 -27 -290 -50 4 -12 3 -13 -5 -1 -9 12 -33 10 -159 -13 -81
-16 -161 -30 -178 -32 -35 -4 -179 -31 -245 -45 -25 -5 -63 -12 -85 -14 -70
-9 -270 -47 -275 -52 -3 -3 8 -3 25 0 23 4 37 -2 69 -29 22 -19 46 -34 53 -34
18 0 93 -43 93 -52 0 -24 -89 10 -166 63 -81 55 -81 55 -494 -17 -255 -45
-379 -70 -386 -80 -8 -11 -13 -11 -16 -3 -3 8 -28 7 -98 -5 -263 -47 -315 -56
-318 -56 -2 0 -1 -4 2 -9 7 -10 -18 -34 -27 -25 -3 3 -4 11 -1 18 3 8 -72 -1
-238 -31 -134 -23 -306 -54 -383 -67 -77 -14 -282 -50 -455 -80 -173 -31 -318
-56 -322 -56 -3 0 -9 19 -13 43 -42 261 -198 1126 -206 1140 -5 10 -7 22 -4
26 3 5 0 33 -6 62 -6 30 -13 68 -15 84 -20 127 -38 205 -46 205 -5 0 -7 9 -3
19 3 11 -1 59 -9 107 -9 48 -15 88 -13 89 1 1 190 35 420 76 369 64 417 75
417 91 0 10 5 18 10 18 6 0 10 -7 10 -15 0 -21 36 -19 44 3 3 9 9 23 12 30 4
8 -3 12 -20 12 -32 0 -34 24 -7 78 10 20 22 56 26 80 6 37 5 42 -12 41 -10 0
-22 -2 -28 -4z m5 -34 c0 -6 -4 -13 -10 -16 -5 -3 -10 1 -10 9 0 9 5 16 10 16
6 0 10 -4 10 -9z m-70 -30 c0 -6 -4 -13 -10 -16 -5 -3 -10 1 -10 9 0 9 5 16
10 16 6 0 10 -4 10 -9z m-20 -89 c0 -13 -12 -22 -22 -16 -10 6 -1 24 13 24 5
0 9 -4 9 -8z m-376 -81 c3 -5 -10 -19 -30 -30 -35 -21 -63 -22 -126 -4 -38 10
-15 23 40 23 31 0 64 5 72 10 19 12 37 13 44 1z m-294 -41 c0 -5 -7 -10 -16
-10 -8 0 -12 5 -9 10 3 6 10 10 16 10 5 0 9 -4 9 -10z m66 -27 c-10 -10 -19 5
-10 18 6 11 8 11 12 0 2 -7 1 -15 -2 -18z m-256 -102 c0 -12 -20 -25 -27 -18
-7 7 6 27 18 27 5 0 9 -4 9 -9z m100 -546 c-13 -16 -111 -55 -137 -55 -26 0
-4 15 62 44 71 30 94 33 75 11z m5772 -327 c-6 -6 -15 -8 -19 -4 -4 4 -1 11 7
16 19 12 27 3 12 -12z m109 -121 c-13 -13 -15 50 -3 80 5 13 8 5 10 -26 2 -24
-2 -49 -7 -54z m-351 43 c0 -5 -5 -10 -11 -10 -5 0 -7 5 -4 10 3 6 8 10 11 10
2 0 4 -4 4 -10z m-60 -84 c-14 -14 -24 0 -16 21 6 15 8 15 16 3 6 -9 5 -19 0
-24z m-745 14 c-3 -5 -10 -10 -16 -10 -5 0 -9 5 -9 10 0 6 7 10 16 10 8 0 12
-4 9 -10z m77 -22 c-6 -6 -15 -8 -19 -4 -4 4 -1 11 7 16 19 12 27 3 12 -12z
m553 3 c-3 -11 -1 -22 5 -26 13 -8 13 -25 0 -45 -9 -13 -11 -13 -20 0 -11 17
-13 73 -3 83 13 14 24 6 18 -12z m-315 -36 c-7 -8 -17 -15 -22 -15 -6 0 -5 7
2 15 7 8 17 15 22 15 6 0 5 -7 -2 -15z m-409 -25 c-21 -18 -71 -28 -71 -15 0
8 62 34 80 34 10 0 8 -6 -9 -19z m-446 -60 c5 -8 11 -7 21 1 8 7 14 7 14 1 0
-5 -7 -15 -15 -22 -12 -10 -18 -10 -30 0 -8 7 -15 16 -15 21 0 12 17 11 25 -1z
m-4134 -60 c-23 -20 -41 -26 -41 -14 0 11 34 33 50 33 10 0 8 -6 -9 -19z m69
-20 c0 -5 -4 -10 -10 -10 -5 0 -10 5 -10 10 0 6 5 10 10 10 6 0 10 -4 10 -10z
m4057 -46 c-9 -9 -28 6 -21 18 4 6 10 6 17 -1 6 -6 8 -13 4 -17z m-877 -25 c0
-13 -32 4 -51 27 -13 16 -12 16 19 0 17 -9 32 -21 32 -27z m860 2 c0 -13 -26
-32 -33 -24 -8 7 11 33 24 33 5 0 9 -4 9 -9z m95 -1 c3 -5 -1 -10 -9 -10 -9 0
-16 5 -16 10 0 6 4 10 9 10 6 0 13 -4 16 -10z m-1045 -77 c0 -22 -17 -14 -44
21 -37 49 -32 60 9 23 19 -17 35 -37 35 -44z m330 47 c0 -5 -5 -10 -11 -10 -5
0 -7 5 -4 10 3 6 8 10 11 10 2 0 4 -4 4 -10z m-3400 -58 c0 -13 -23 -32 -39
-32 -11 0 -10 4 4 20 19 21 35 26 35 12z m3346 -49 c-10 -10 -19 5 -10 18 6
11 8 11 12 0 2 -7 1 -15 -2 -18z m-676 7 c0 -5 -7 -10 -15 -10 -8 0 -15 5 -15
10 0 6 7 10 15 10 8 0 15 -4 15 -10z m490 -9 c0 -6 -4 -13 -10 -16 -5 -3 -10
1 -10 9 0 9 5 16 10 16 6 0 10 -4 10 -9z m-1050 -9 c0 -13 -12 -22 -22 -16
-10 6 -1 24 13 24 5 0 9 -4 9 -8z m1130 -2 c0 -5 -2 -10 -4 -10 -3 0 -8 5 -11
10 -3 6 -1 10 4 10 6 0 11 -4 11 -10z m-1582 -92 c-3 -7 -13 -15 -24 -17 -16
-3 -17 -1 -5 13 16 19 34 21 29 4z m-178 -32 c0 -3 -4 -8 -10 -11 -5 -3 -10
-1 -10 4 0 6 5 11 10 11 6 0 10 -2 10 -4z m810 -6 c0 -5 -4 -10 -10 -10 -5 0
-10 5 -10 10 0 6 5 10 10 10 6 0 10 -4 10 -10z m30 -14 c0 -15 -18 -31 -26
-23 -7 7 7 37 17 37 5 0 9 -6 9 -14z m-990 -16 c0 -5 -9 -10 -20 -10 -11 0
-20 5 -20 10 0 6 9 10 20 10 11 0 20 -4 20 -10z m-1400 -14 c0 -3 -4 -8 -10
-11 -5 -3 -10 -1 -10 4 0 6 5 11 10 11 6 0 10 -2 10 -4z m1320 -6 c0 -5 -4
-10 -10 -10 -5 0 -10 5 -10 10 0 6 5 10 10 10 6 0 10 -4 10 -10z m-430 -70 c0
-5 -5 -10 -11 -10 -5 0 -7 5 -4 10 3 6 8 10 11 10 2 0 4 -4 4 -10z m-170 -10
c0 -5 -4 -10 -10 -10 -5 0 -10 5 -10 10 0 6 5 10 10 10 6 0 10 -4 10 -10z
m555 -60 c-10 -11 -20 -18 -23 -15 -7 6 18 35 31 35 5 0 2 -9 -8 -20z m-882
-21 c-5 -19 -3 -21 19 -16 18 5 34 1 52 -14 31 -25 33 -40 6 -64 -13 -11 -20
-14 -20 -6 0 8 -11 11 -27 9 -19 -2 -27 -8 -25 -18 2 -8 4 -19 5 -25 1 -5 -9
-11 -23 -13 -14 -2 -31 -8 -37 -14 -15 -12 -83 -2 -83 12 0 6 17 10 38 10 26
0 45 7 57 20 18 19 15 50 -5 50 -6 0 -14 10 -19 22 -6 17 -2 27 18 45 33 29
51 30 44 2z m-242 -32 c-8 -8 -11 -7 -11 4 0 20 13 34 18 19 3 -7 -1 -17 -7
-23z"/>
<path d="M3910 2669 c-52 -11 -102 -20 -110 -20 -8 0 -39 -5 -68 -11 -36 -8
-49 -15 -42 -22 16 -16 12 -26 -10 -26 -19 0 -20 -7 -20 -239 0 -149 4 -242
10 -246 6 -3 10 -13 10 -21 0 -8 -4 -13 -9 -9 -5 3 -12 1 -15 -4 -4 -5 10 -23
31 -40 20 -17 33 -34 29 -38 -4 -5 -18 4 -31 20 -13 15 -25 27 -27 27 -2 0 -2
-46 0 -102 3 -92 5 -101 18 -84 8 11 14 35 14 53 0 26 4 33 20 33 11 0 27 11
35 24 17 25 75 42 75 21 0 -6 -18 -29 -40 -50 -22 -21 -40 -44 -40 -51 0 -7
-7 -14 -15 -18 -8 -3 -15 -14 -15 -24 0 -10 -9 -27 -19 -37 -12 -10 -21 -33
-23 -58 -3 -36 -8 -24 -44 98 -26 91 -45 139 -53 137 -9 -2 -10 4 -6 19 5 16
4 19 -5 14 -10 -6 -11 -1 -7 18 5 18 -13 78 -63 213 -39 104 -74 192 -79 197
-5 5 -20 -6 -35 -26 -41 -54 -136 -111 -136 -83 0 8 24 29 53 46 28 18 62 41
75 53 22 21 30 57 12 57 -5 0 -10 10 -10 23 0 13 -6 31 -13 41 -12 16 -21 15
-165 -10 -146 -26 -151 -28 -135 -46 9 -10 25 -18 35 -18 11 0 16 -4 13 -10
-11 -18 -49 -10 -77 17 -15 14 -30 24 -33 21 -3 -3 6 -70 20 -149 14 -79 48
-272 75 -429 28 -157 55 -295 62 -308 12 -23 42 -30 53 -12 12 20 26 10 15
-10 -7 -14 -8 -26 0 -39 15 -28 13 -33 -9 -21 -28 14 -54 2 -48 -24 3 -11 17
-93 33 -181 l27 -160 28 27 c25 25 49 36 49 23 0 -3 -7 -22 -15 -42 -8 -20
-14 -37 -13 -39 2 -1 35 3 73 10 39 8 86 16 106 20 l36 6 -10 55 c-6 32 -16
55 -23 55 -7 0 -14 7 -16 16 -2 9 -19 22 -38 28 -27 9 -36 18 -41 43 -8 38
-27 65 -43 60 -6 -2 -19 9 -29 25 -14 24 -15 33 -5 51 11 20 12 20 16 4 2 -11
11 -27 20 -36 10 -10 24 -27 33 -38 12 -14 25 -18 51 -15 l35 4 -12 61 c-7 34
-23 116 -35 182 -13 66 -25 122 -26 124 -2 2 -10 -1 -17 -8 -11 -9 -17 -8 -26
3 -10 12 -9 17 8 28 26 16 26 22 0 150 -40 198 -47 233 -44 236 1 1 26 -64 55
-145 29 -82 56 -152 60 -156 13 -15 59 33 62 66 4 38 27 47 46 17 11 -18 10
-21 -11 -29 -13 -5 -38 -27 -56 -49 l-31 -40 57 -157 c61 -170 55 -163 97
-100 8 11 17 17 22 12 4 -4 -7 -26 -24 -50 l-31 -43 43 -119 c24 -65 50 -123
59 -130 10 -7 13 -20 10 -38 -7 -37 7 -40 117 -19 l95 18 0 490 c-1 487 -1
490 -24 543 -12 29 -20 59 -17 67 8 22 32 16 44 -11 6 -14 15 -25 20 -25 9 0
9 -41 -1 -57 -8 -13 70 -541 84 -566 5 -10 7 -22 3 -28 -9 -15 5 -61 16 -54
15 9 25 -24 11 -38 -6 -6 -11 -29 -11 -50 0 -34 2 -38 15 -27 10 9 15 9 15 1
0 -6 9 -11 21 -11 27 0 20 -21 -13 -37 -20 -10 -24 -18 -20 -43 2 -17 10 -30
18 -30 8 0 14 -4 14 -10 0 -5 -4 -10 -10 -10 -12 0 -13 -40 -2 -58 7 -10 24
-10 78 -2 38 5 74 10 81 10 6 0 19 7 28 16 11 11 19 13 28 6 25 -21 40 3 33
52 -4 25 -11 46 -16 46 -5 0 -7 13 -4 30 5 20 1 34 -11 46 -10 11 -13 19 -6
23 13 8 -7 141 -22 141 -5 0 -7 10 -4 21 3 12 -5 81 -18 153 -45 249 -74 412
-112 633 -30 176 -41 223 -53 222 -8 -1 -58 -10 -110 -20z m-50 -129 c0 -5 -2
-10 -4 -10 -3 0 -8 5 -11 10 -3 6 -1 10 4 10 6 0 11 -4 11 -10z m-803 -135
c-4 -8 -11 -15 -17 -15 -14 0 -13 27 3 33 16 6 21 1 14 -18z m304 -78 c-8 -8
-11 -7 -11 4 0 20 13 34 18 19 3 -7 -1 -17 -7 -23z m-185 -18 c13 -14 27 -19
46 -17 32 5 36 -2 10 -18 -22 -14 -77 -7 -93 12 -12 14 -6 44 9 44 5 0 17 -9
28 -21z m54 -119 c0 -11 -2 -20 -4 -20 -2 0 -6 9 -9 20 -3 11 -1 20 4 20 5 0
9 -9 9 -20z m133 -22 c-13 -12 -26 -18 -30 -14 -4 4 1 14 11 22 31 22 43 17
19 -8z m477 -217 c0 -6 -4 -13 -10 -16 -5 -3 -10 1 -10 9 0 9 5 16 10 16 6 0
10 -4 10 -9z m122 -73 c-7 -7 -12 -8 -12 -2 0 14 12 26 19 19 2 -3 -1 -11 -7
-17z m-157 -90 c9 -18 10 -27 3 -20 -6 6 -20 12 -30 12 -18 0 -25 20 -11 33
12 13 22 7 38 -25z m-505 -69 c-12 -16 -24 -28 -27 -25 -7 6 27 56 39 56 5 0
0 -14 -12 -31z m800 -179 c-12 -17 -24 -29 -27 -26 -3 3 5 19 17 36 12 17 24
29 27 26 3 -3 -5 -19 -17 -36z m15 -150 c3 -5 1 -10 -4 -10 -6 0 -11 5 -11 10
0 6 2 10 4 10 3 0 8 -4 11 -10z m47 -27 c27 -24 22 -36 -7 -17 -14 9 -25 20
-25 25 0 14 11 11 32 -8z m-102 -33 c0 -5 -4 -10 -10 -10 -5 0 -10 5 -10 10 0
6 5 10 10 10 6 0 10 -4 10 -10z m-715 -40 c3 -5 1 -10 -4 -10 -6 0 -11 5 -11
10 0 6 2 10 4 10 3 0 8 -4 11 -10z"/>
<path d="M2643 2448 c-81 -15 -113 -25 -113 -35 0 -14 61 -359 81 -461 9 -44
13 -51 25 -41 8 6 14 8 14 4 0 -4 -7 -13 -15 -19 -12 -10 -5 -66 59 -424 41
-227 75 -414 77 -416 4 -3 261 43 266 48 3 2 -12 91 -77 456 -22 124 -47 266
-56 315 -8 50 -19 106 -24 125 -4 19 -11 54 -15 78 -4 23 -11 42 -16 42 -5 0
-6 13 -3 28 5 23 -16 168 -42 295 -7 32 -8 32 -161 5z m-69 -52 c-9 -15 -19
-24 -22 -22 -2 3 3 17 12 32 10 14 20 23 23 21 2 -3 -3 -17 -13 -31z m56 -36
c0 -5 -4 -10 -10 -10 -5 0 -10 5 -10 10 0 6 5 10 10 10 6 0 10 -4 10 -10z
m184 -293 c-7 -20 -34 -23 -34 -4 0 19 22 39 32 29 5 -5 6 -16 2 -25z m-54
-51 c0 -16 -18 -31 -27 -22 -8 8 5 36 17 36 5 0 10 -6 10 -14z m100 -15 c0 -6
-4 -13 -10 -16 -5 -3 -10 1 -10 9 0 9 5 16 10 16 6 0 10 -4 10 -9z m-180 -51
c0 -5 -5 -10 -11 -10 -5 0 -7 5 -4 10 3 6 8 10 11 10 2 0 4 -4 4 -10z m84
-121 c13 -11 7 -15 -31 -22 -18 -4 -33 -2 -33 2 0 5 -3 16 -6 25 -5 13 0 15
27 10 19 -4 38 -10 43 -15z m136 -23 c0 -16 -18 -31 -27 -22 -8 8 5 36 17 36
5 0 10 -6 10 -14z m-200 -126 c0 -5 -4 -10 -10 -10 -5 0 -10 5 -10 10 0 6 5
10 10 10 6 0 10 -4 10 -10z m160 -254 c0 -8 -4 -18 -10 -21 -5 -3 -10 3 -10
14 0 12 5 21 10 21 6 0 10 -6 10 -14z m140 -206 c0 -5 -4 -10 -10 -10 -5 0
-10 5 -10 10 0 6 5 10 10 10 6 0 10 -4 10 -10z"/>
<path d="M7301 2443 c0 -5 4 -17 9 -28 8 -18 9 -17 9 8 1 15 -3 27 -9 27 -5 0
-10 -3 -9 -7z"/>
<path d="M2030 2340 c-19 -4 -79 -16 -132 -25 -54 -10 -96 -20 -94 -24 2 -3
32 -168 66 -366 45 -254 68 -364 78 -373 11 -8 13 -15 6 -22 -7 -7 -8 -30 -2
-68 13 -84 13 -85 43 -66 24 16 25 16 25 -9 0 -16 -8 -31 -21 -38 -25 -13 -25
-12 16 -251 23 -132 33 -168 45 -168 8 0 53 7 100 16 47 8 99 18 115 21 249
42 358 63 363 68 5 5 -35 265 -41 272 -2 1 -61 -9 -132 -23 -204 -39 -192 -38
-200 -6 -4 15 -8 36 -10 47 -24 152 -57 343 -61 353 -2 8 -31 -23 -67 -72 -34
-47 -66 -85 -70 -86 -5 0 -6 4 -2 9 3 5 1 12 -5 16 -16 10 -12 19 26 63 20 23
37 48 38 56 1 7 17 28 35 46 37 37 37 26 5 203 -11 60 -20 87 -30 87 -17 0
-19 17 -3 22 13 4 -16 204 -32 224 -5 6 -7 19 -3 28 9 24 -33 21 -46 -4 -10
-19 -50 -29 -50 -12 0 4 20 20 45 35 25 16 45 35 45 43 0 15 0 15 -50 4z
m-122 -99 c3 -8 -1 -12 -9 -9 -7 2 -15 10 -17 17 -3 8 1 12 9 9 7 -2 15 -10
17 -17z m103 -314 c-16 -16 -26 0 -10 19 9 11 15 12 17 4 2 -6 -1 -17 -7 -23z
m-4 -413 c3 -8 1 -20 -6 -27 -6 -6 -11 -19 -11 -29 0 -10 -4 -18 -10 -18 -11
0 -14 49 -4 74 8 20 23 20 31 0z m83 -125 c0 -5 -4 -9 -10 -9 -5 0 -10 7 -10
16 0 8 5 12 10 9 6 -3 10 -10 10 -16z m126 -167 c-10 -10 -29 15 -21 28 6 9
10 8 17 -4 6 -10 7 -20 4 -24z m184 13 c0 -2 -14 -20 -31 -40 -26 -29 -29 -38
-19 -50 11 -13 8 -15 -14 -15 -14 0 -26 3 -26 6 0 18 45 83 64 92 26 13 26 13
26 7z m-175 -95 c-8 -13 -45 -13 -65 0 -11 7 -3 10 28 10 26 0 41 -4 37 -10z
m65 0 c0 -5 -7 -10 -16 -10 -8 0 -12 5 -9 10 3 6 10 10 16 10 5 0 9 -4 9 -10z
m-25 -89 c-3 -12 -11 -19 -16 -16 -5 4 -5 14 2 26 13 26 23 18 14 -10z m55
-20 c0 -12 -20 -25 -27 -18 -7 7 6 27 18 27 5 0 9 -4 9 -9z"/>
<path d="M1310 2213 c-168 -30 -306 -56 -307 -57 -1 -1 16 -101 37 -221 22
-121 40 -223 40 -227 0 -5 10 -8 22 -8 11 0 46 -12 76 -26 36 -17 63 -24 79
-19 20 5 24 3 20 -9 -7 -18 18 -23 28 -6 12 20 36 11 33 -12 -4 -29 3 -31 50
-17 44 13 203 -9 210 -29 5 -15 -29 -15 -93 1 -27 7 -65 11 -84 9 l-33 -3 6
-52 c3 -29 2 -59 -4 -67 -8 -12 -10 -11 -10 6 0 11 -7 29 -15 40 -8 10 -15 26
-15 35 0 22 -28 44 -72 58 -20 7 -38 16 -40 22 -3 8 -138 31 -145 25 -2 -2 11
-81 28 -177 17 -96 33 -191 36 -211 4 -30 10 -38 27 -39 17 -1 17 -2 4 -6 -10
-2 -18 -10 -18 -16 0 -7 16 -105 37 -218 30 -172 39 -206 52 -203 22 5 526 95
576 103 27 4 39 11 38 21 -9 86 -47 260 -57 260 -6 0 -49 -7 -96 -15 -47 -8
-86 -15 -86 -15 -1 0 -5 -10 -8 -22 -6 -22 -7 -22 -21 -4 -14 19 -22 19 -116
0 l-25 -5 -24 138 c-12 76 -28 145 -35 153 -10 12 -9 23 6 55 9 22 18 33 19
25 0 -8 9 -25 20 -38 l19 -24 77 16 c53 11 81 22 95 38 10 13 18 18 19 12 0
-5 -5 -15 -12 -22 -15 -15 -12 -15 50 -1 43 9 49 13 45 32 -3 13 -17 28 -34
36 -35 16 -39 34 -4 25 14 -3 25 -2 25 2 0 19 -30 177 -34 182 -3 2 -77 -8
-165 -24 -89 -15 -163 -25 -165 -23 -7 7 -47 241 -43 246 2 2 82 17 178 34 96
17 175 32 177 34 8 7 -44 265 -53 264 -5 -1 -147 -26 -315 -56z m-252 -108
c18 -40 15 -77 -5 -73 -14 2 -19 15 -21 51 -3 52 8 61 26 22z m123 -138 c-8
-8 -11 -5 -11 9 0 27 14 41 18 19 2 -9 -1 -22 -7 -28z m-41 3 c14 -27 3 -62
-18 -58 -27 5 -29 78 -3 78 6 0 15 -9 21 -20z m45 -100 c-3 -5 -15 -10 -26
-10 -11 0 -17 5 -14 10 3 6 15 10 26 10 11 0 17 -4 14 -10z m45 -395 c-7 -9
-15 -13 -18 -10 -3 2 1 11 8 20 7 9 15 13 18 10 3 -2 -1 -11 -8 -20z m160
-250 c14 -16 10 -18 -14 -9 -9 3 -16 10 -16 15 0 14 16 11 30 -6z m254 -284
c17 -18 17 -20 -2 -30 -23 -12 -32 -6 -32 26 0 28 11 29 34 4z"/>
<path d="M5074 1898 c-1 -40 -6 -56 -22 -69 -26 -20 -15 -33 37 -44 l34 -7 -7
38 c-17 90 -28 134 -34 134 -4 0 -7 -23 -8 -52z"/>
<path d="M6026 1645 c-3 -8 -1 -15 4 -15 6 0 10 7 10 15 0 8 -2 15 -4 15 -2 0
-6 -7 -10 -15z"/>
<path d="M5414 1146 c-22 -14 -45 -36 -51 -49 -8 -17 -23 -27 -49 -31 -20 -4
-33 -11 -28 -16 6 -5 197 21 210 30 0 0 -2 19 -5 42 -7 52 -22 57 -77 24z"/>
<path d="M3235 1149 c-9 -14 -2 -20 14 -10 8 6 9 11 3 15 -6 3 -14 1 -17 -5z"/>
</g>
</svg>
